<?xml version="1.0" encoding="utf-8"?>
<!-- Generator: Adobe Illustrator 16.0.0, SVG Export Plug-In . SVG Version: 6.00 Build 0)  -->
<!DOCTYPE svg PUBLIC "-//W3C//DTD SVG 1.1//EN" "http://www.w3.org/Graphics/SVG/1.1/DTD/svg11.dtd">
<svg version="1.1" xmlns="http://www.w3.org/2000/svg" xmlns:xlink="http://www.w3.org/1999/xlink" x="0px" y="0px" width="250px"
	 height="250px" viewBox="0 0 250 250" enable-background="new 0 0 250 250" xml:space="preserve">
<g id="Create_Campaign_Page">
</g>
<g id="Create_Profile">
	<path fill="#F5F5F5" d="M230.25,128.25c0,9.22-1.17,18.16-3.37,26.69c-0.06,0.22-0.12,0.449-0.18,0.68
		c-0.11,0.42-0.22,0.84-0.351,1.26c-0.04,0.17-0.09,0.351-0.14,0.53c-0.52,1.82-1.08,3.62-1.7,5.399
		c-0.01,0.04-0.02,0.091-0.04,0.131c-0.569,1.659-1.18,3.3-1.84,4.92c-0.01,0.05-0.03,0.09-0.05,0.13
		c-0.54,1.37-1.12,2.71-1.72,4.05c-0.061,0.14-0.12,0.27-0.19,0.41c-0.71,1.55-1.45,3.09-2.24,4.6
		c-0.069,0.141-0.14,0.29-0.22,0.431c-0.38,0.739-0.78,1.479-1.19,2.21c-0.1,0.199-0.21,0.39-0.329,0.59
		c-0.131,0.239-0.261,0.479-0.4,0.72c-0.12,0.2-0.23,0.4-0.35,0.6c-18.431,31.78-52.811,53.15-92.19,53.15
		c-31.21,0-59.29-13.43-78.75-34.82c-0.29-0.3-0.56-0.609-0.83-0.91c-0.13-0.14-0.26-0.279-0.37-0.42
		c-0.49-0.54-0.96-1.09-1.43-1.649c-0.19-0.22-0.37-0.44-0.55-0.67c-0.181-0.21-0.36-0.431-0.53-0.641l-0.01-0.01
		c-0.12-0.13-0.221-0.25-0.311-0.38c-0.46-0.55-0.899-1.11-1.33-1.67c-0.21-0.26-0.399-0.51-0.59-0.771
		c-1.069-1.39-2.1-2.81-3.08-4.25c-0.109-0.14-0.2-0.27-0.279-0.409c-1.07-1.561-2.101-3.15-3.08-4.771
		c-0.04-0.07-0.08-0.14-0.12-0.21c-1.08-1.78-2.101-3.59-3.061-5.439c-0.04-0.061-0.08-0.12-0.1-0.181
		c-1.43-2.72-2.74-5.52-3.92-8.37v-0.01c-0.101-0.21-0.19-0.42-0.26-0.63c-0.04-0.06-0.07-0.13-0.08-0.19
		c-0.271-0.64-0.521-1.279-0.761-1.92c-0.06-0.149-0.109-0.29-0.159-0.439c-0.08-0.181-0.15-0.37-0.21-0.561
		c-0.04-0.08-0.07-0.17-0.101-0.26c-4.26-11.5-6.59-23.939-6.59-36.92c0-31.37,13.56-59.58,35.15-79.07
		c0.17-0.15,0.34-0.31,0.52-0.46c1.28-1.15,2.59-2.26,3.93-3.33c4.931-3.99,10.23-7.55,15.83-10.61c0.48-0.27,0.971-0.53,1.46-0.79
		c4.7-2.48,9.62-4.62,14.71-6.38c2.99-1.04,6.04-1.95,9.15-2.72c4.55-1.13,9.22-1.97,13.99-2.49c0.01,0,0.01,0,0.01,0
		c0.2-0.02,0.41-0.05,0.62-0.06c0.14-0.02,0.29-0.04,0.439-0.05c0.9-0.09,1.811-0.17,2.721-0.24c1.47-0.11,2.95-0.19,4.439-0.24
		c0.07,0,0.141-0.01,0.221-0.01c1.1-0.03,2.199-0.05,3.31-0.05h0.33c0.09,0,0.17,0,0.26,0.01h0.01c2.21,0,4.41,0.08,6.591,0.23
		c0.1,0,0.199,0.01,0.29,0.02c1.109,0.07,2.199,0.17,3.3,0.28c0.27,0.03,0.54,0.05,0.81,0.08c0.09,0.01,0.19,0.02,0.29,0.04
		c3.01,0.33,5.99,0.79,8.92,1.38c0.24,0.04,0.48,0.09,0.72,0.15c0,0,0,0,0.011,0c1.41,0.28,2.81,0.6,4.2,0.95
		c3.109,0.77,6.17,1.68,9.17,2.72c4.59,1.59,9.05,3.49,13.33,5.67c0.329,0.16,0.659,0.33,0.979,0.5c1.34,0.7,2.65,1.42,3.95,2.17
		c0.359,0.21,0.729,0.42,1.09,0.64c1.05,0.62,2.09,1.26,3.12,1.93c0.49,0.31,0.979,0.63,1.47,0.96c1.2,0.79,2.38,1.62,3.55,2.46
		c1.591,1.14,3.15,2.33,4.67,3.58c0.181,0.13,0.351,0.27,0.53,0.43C215.1,65.47,230.25,95.09,230.25,128.25z"/>
	<g id="Clipboard">
		<path opacity="0.1" d="M182.59,177.097c0,4.598-3.762,8.359-8.358,8.359H82.506c-4.597,0-9.444-5.451-9.444-10.049L74.147,33.25
			c0-4.596,3.762-8.357,8.358-8.357h88.218l3.484-1.829c4.596,0,8.382,5.59,8.382,10.186V177.097z"/>
		<path fill="#2F2F2F" d="M181.121,174.494c0,4.597-3.762,8.358-8.359,8.358H81.036c-4.596,0-8.357-3.762-8.357-8.358V30.646
			c0-4.596,3.762-8.358,8.357-8.358h91.726c4.598,0,8.359,3.762,8.359,8.358V174.494z"/>
		<rect x="76.302" y="33.779" opacity="0.1" width="101.693" height="144.6"/>
		
			<rect x="76.888" y="33.281" transform="matrix(0.9998 -0.0183 0.0183 0.9998 -1.9069 2.3444)" fill="#EDEFEF" width="100.024" height="143.765"/>
		
			<rect x="76.888" y="33.282" transform="matrix(0.9993 0.0375 -0.0375 0.9993 4.0378 -4.6903)" fill="#EDEFEF" width="100.024" height="143.765"/>
		<rect x="76.888" y="33.281" fill="#FFFFFF" width="100.023" height="143.765"/>
		<rect x="104.145" y="33.281" opacity="0.05" width="47.188" height="0.589"/>
		<g>
			<path fill="#B7B7B7" d="M147.64,25.39c-0.33-0.17-0.63-0.34-0.909-0.5c-0.591-0.34-1.061-0.66-1.45-0.95
				c-0.011,0-0.011,0-0.011,0c-0.52-0.38-0.89-0.72-1.22-1.02c-0.16-0.14-0.3-0.27-0.439-0.4c-0.091-0.08-0.181-0.16-0.271-0.23
				c0-0.01,0-0.01-0.01,0c-0.07-0.06-0.14-0.12-0.21-0.17c-0.21-0.17-0.45-0.32-0.73-0.47c-1.6-0.86-4.54-0.81-6.62-3.41
				c-2.069-2.6-2.27-7.66-8.029-7.66c-5.771,0-5.96,5.06-8.04,7.66c-2.08,2.6-5.021,2.55-6.62,3.41c-0.28,0.15-0.521,0.3-0.73,0.47
				c-0.069,0.05-0.14,0.11-0.21,0.17c0,0-0.01-0.01-0.01,0c-0.05,0.03-0.09,0.07-0.13,0.11c0,0,0,0-0.01,0
				c-0.04,0.04-0.08,0.08-0.13,0.12c-0.141,0.13-0.28,0.26-0.44,0.4c-0.58,0.54-1.3,1.17-2.68,1.97c-0.28,0.16-0.58,0.33-0.91,0.5
				c-3.55,1.84-3.69,2.56-3.69,3.16v0.42c0,1.23,0,4.31,0,4.31h47.19c0,0,0-3.08,0-4.31v-0.42
				C151.33,27.95,151.19,27.23,147.64,25.39z M108.53,30.03c-0.011-0.07-0.021-0.14-0.021-0.21c0-0.62,0.5-1.12,1.11-1.12
				c0.31,0,0.59,0.12,0.79,0.33c0.2,0.2,0.32,0.48,0.32,0.79c0,0.04,0,0.07-0.011,0.1c-0.01,0.03-0.01,0.06-0.02,0.08
				c0,0.04-0.01,0.08-0.021,0.11c-0.02,0.07-0.04,0.14-0.069,0.2c-0.051,0.1-0.11,0.21-0.2,0.29c-0.2,0.2-0.48,0.33-0.79,0.33
				C109.08,30.93,108.63,30.54,108.53,30.03z M130.66,22.29h-0.01c-0.131,0.14-0.29,0.27-0.45,0.38c-0.17,0.12-0.34,0.23-0.521,0.32
				c-0.569,0.31-1.239,0.48-1.939,0.48c-0.19,0-0.38-0.01-0.57-0.04c-0.09-0.01-0.18-0.03-0.28-0.05c-0.13-0.02-0.26-0.05-0.39-0.1
				c-0.11-0.03-0.21-0.06-0.31-0.1c-0.16-0.06-0.311-0.14-0.46-0.22c-0.12-0.06-0.23-0.13-0.351-0.21
				c-0.11-0.07-0.22-0.15-0.32-0.24c-0.09-0.07-0.17-0.14-0.239-0.22h-0.011c-0.029-0.03-0.06-0.06-0.079-0.09
				c-0.091-0.08-0.171-0.17-0.24-0.26c-0.05-0.06-0.101-0.12-0.141-0.18c-0.04-0.05-0.069-0.09-0.1-0.14
				c-0.08-0.12-0.15-0.23-0.21-0.35c-0.07-0.12-0.13-0.24-0.18-0.37c-0.051-0.13-0.101-0.26-0.141-0.39
				c-0.08-0.25-0.14-0.52-0.17-0.79v-0.04c-0.01-0.14-0.02-0.28-0.02-0.42c0-2.32,1.88-4.2,4.21-4.2c2.319,0,4.2,1.88,4.2,4.2
				c0,0.14-0.011,0.28-0.021,0.42v0.04c-0.03,0.27-0.09,0.54-0.17,0.79c-0.04,0.15-0.1,0.29-0.16,0.43
				c-0.05,0.11-0.1,0.22-0.16,0.33c-0.05,0.1-0.109,0.2-0.18,0.3c-0.09,0.15-0.2,0.28-0.31,0.42
				C130.85,22.09,130.76,22.19,130.66,22.29z M144.92,30.03c-0.01-0.07-0.02-0.14-0.02-0.21c0-0.61,0.51-1.12,1.119-1.12
				c0.381,0,0.721,0.2,0.921,0.5c0.119,0.18,0.189,0.39,0.189,0.62c0,0.05-0.008,0.096-0.014,0.143
				c-0.005,0.031-0.009,0.061-0.016,0.091c-0.011,0.025-0.022,0.054-0.03,0.076c-0.011,0.058-0.03,0.114-0.058,0.163
				c-0.03,0.057-0.053,0.119-0.093,0.167c-0.03,0.05-0.07,0.1-0.12,0.14c-0.2,0.21-0.479,0.33-0.78,0.33
				C145.48,30.93,145.02,30.54,144.92,30.03z"/>
			<path fill="#E5E5E5" d="M109.62,28.18c-0.9,0-1.63,0.74-1.63,1.64c0,0.9,0.729,1.63,1.63,1.63c0.899,0,1.63-0.73,1.63-1.63
				C111.25,28.92,110.52,28.18,109.62,28.18z M110.41,30.6c-0.2,0.2-0.48,0.33-0.79,0.33c-0.54,0-0.99-0.39-1.09-0.9
				c-0.011-0.07-0.021-0.14-0.021-0.21c0-0.62,0.5-1.12,1.11-1.12c0.31,0,0.59,0.12,0.79,0.33c0.21,0.2,0.33,0.48,0.33,0.79
				C110.74,30.12,110.62,30.4,110.41,30.6z"/>
			<path fill="#E5E5E5" d="M146.02,28.18c-0.899,0-1.63,0.74-1.63,1.64c0,0.9,0.73,1.63,1.63,1.63c0.9,0,1.631-0.73,1.631-1.63
				C147.65,28.92,146.92,28.18,146.02,28.18z M146.92,30.46c-0.03,0.05-0.07,0.1-0.12,0.14c-0.2,0.21-0.479,0.33-0.78,0.33
				c-0.539,0-1-0.39-1.1-0.9c-0.01-0.07-0.02-0.14-0.02-0.21c0-0.61,0.51-1.12,1.119-1.12c0.381,0,0.721,0.2,0.921,0.5
				c0.13,0.17,0.199,0.39,0.199,0.62C147.14,30.06,147.06,30.29,146.92,30.46z"/>
			<g opacity="0.5">
				<path fill="#FFFFFF" d="M147.642,25.387c-3.544-1.847-3.64-2.892-5.25-3.74c-1.604-0.853-4.538-0.803-6.618-3.407
					c-2.078-2.599-2.27-7.656-8.037-7.656c-5.769,0-5.96,5.057-8.038,7.656c-2.08,2.604-5.015,2.554-6.62,3.407
					c-1.608,0.848-1.705,1.893-5.248,3.74c-3.549,1.839-3.687,2.561-3.687,3.168v0.417c0-0.606,0.138-1.329,3.687-3.167
					c3.543-1.848,3.64-2.892,5.248-3.74c1.605-0.853,4.54-0.803,6.62-3.406c2.078-2.599,2.27-7.656,8.038-7.656
					c5.768,0,5.959,5.057,8.037,7.656c2.08,2.603,5.014,2.553,6.618,3.406c1.61,0.848,1.706,1.892,5.25,3.74
					c3.549,1.838,3.69,2.562,3.69,3.167v-0.417C151.332,27.948,151.19,27.226,147.642,25.387z"/>
			</g>
		</g>
		<path opacity="0.1" d="M110.734,29.817c0,0.07-0.007,0.143-0.021,0.209c-0.096-0.519-0.548-0.908-1.091-0.908
			s-0.993,0.389-1.096,0.908c-0.012-0.066-0.02-0.139-0.02-0.209c0-0.614,0.502-1.116,1.115-1.116
			C110.238,28.701,110.734,29.203,110.734,29.817z"/>
		<path opacity="0.1" d="M147.132,29.821c0,0.07-0.008,0.142-0.021,0.209c-0.098-0.519-0.547-0.907-1.092-0.907
			c-0.543,0-0.994,0.389-1.096,0.907c-0.012-0.067-0.021-0.139-0.021-0.209c0-0.614,0.502-1.117,1.116-1.117
			C146.635,28.704,147.132,29.207,147.132,29.821z"/>
		<g>
			<g>
				<path fill="#D3D3D3" d="M155.39,46.16c0,0,0,0,0-0.01c0-0.36-0.02-0.72-0.04-1.06c0-0.06,0-0.12-0.01-0.17
					c-0.02-0.19-0.03-0.39-0.06-0.58c-0.021-0.19-0.05-0.38-0.08-0.56c-0.021-0.15-0.05-0.29-0.09-0.44
					c-0.021-0.1-0.04-0.19-0.07-0.29c-0.021-0.1-0.05-0.2-0.09-0.3c-0.021-0.08-0.05-0.16-0.08-0.23
					c-0.061-0.18-0.14-0.36-0.22-0.52c-0.07-0.15-0.15-0.3-0.24-0.44c-0.09-0.16-0.2-0.31-0.311-0.45
					c-0.04-0.06-0.09-0.11-0.13-0.16c-0.06-0.08-0.13-0.15-0.2-0.22c-0.079-0.08-0.159-0.16-0.25-0.25
					c-0.02-0.02-0.05-0.04-0.069-0.06c-0.11-0.1-0.23-0.2-0.36-0.29c-0.1-0.07-0.2-0.14-0.3-0.21c-0.09-0.06-0.18-0.12-0.271-0.17
					c-0.199-0.11-0.399-0.22-0.619-0.32c-0.101-0.05-0.21-0.1-0.32-0.14c-0.29-0.12-0.6-0.24-0.93-0.34
					c-0.2-0.06-0.41-0.12-0.631-0.18l-7.46-1.38c0,0-1.909-0.69-1.909-2.15v-7.79c0-0.17,0-0.28,0-0.28s0.01-0.08-0.011-0.2
					c0-0.02,0-0.05-0.01-0.08c-0.01-0.03-0.01-0.06-0.02-0.1c-0.061-0.27-0.24-0.65-0.69-1c-0.04-0.04-0.1-0.08-0.15-0.11
					c-0.199-0.14-0.439-0.27-0.729-0.39c-0.25-0.1-0.521-0.23-0.8-0.4c-0.21-0.13-0.431-0.28-0.641-0.44
					c-0.13-0.09-0.25-0.2-0.38-0.31c-0.35-0.29-0.689-0.63-1-0.99c-0.109-0.11-0.21-0.24-0.31-0.36c-0.09-0.12-0.19-0.24-0.271-0.37
					l-0.01-0.01c-0.03-0.04-0.06-0.08-0.08-0.12c-0.319-0.48-0.58-0.97-0.75-1.47c-0.04-0.11-0.069-0.22-0.1-0.33
					c-0.01-0.03-0.021-0.05-0.021-0.06c-0.02-0.1-0.05-0.21-0.06-0.31c-0.03-0.19-0.05-0.37-0.05-0.56c0-3.77-3.061-6.84-6.83-6.84
					c-3.78,0-6.84,3.07-6.84,6.84c0,0.13-0.011,0.27-0.03,0.4c-0.01,0.15-0.04,0.3-0.08,0.45c-0.021,0.09-0.05,0.19-0.08,0.28
					c-0.11,0.38-0.28,0.75-0.49,1.12c-0.09,0.16-0.189,0.32-0.3,0.48c-0.09,0.13-0.18,0.26-0.29,0.4
					c-0.189,0.25-0.39,0.49-0.62,0.72c-0.56,0.6-1.189,1.12-1.779,1.48c-0.28,0.17-0.551,0.3-0.801,0.4c-1.76,0.7-1.6,1.88-1.6,1.88
					s0,0.11,0,0.28v0.08c0,0.04,0,0.06,0,0.06v7.65c0,1.46-1.92,2.15-1.92,2.15l-7.46,1.38c-0.22,0.06-0.431,0.12-0.63,0.18
					c-0.73,0.23-1.34,0.49-1.86,0.8c-0.1,0.05-0.19,0.11-0.28,0.17c-0.1,0.07-0.199,0.14-0.3,0.21c-0.13,0.09-0.25,0.19-0.36,0.29
					c-0.02,0.02-0.039,0.04-0.069,0.06l-0.25,0.25c-0.101,0.11-0.19,0.21-0.28,0.32c-0.02,0.02-0.03,0.04-0.05,0.06
					c-0.07,0.09-0.14,0.19-0.2,0.29c-0.06,0.08-0.12,0.18-0.17,0.27c-0.23,0.39-0.4,0.82-0.54,1.27c-0.03,0.13-0.07,0.27-0.1,0.4
					c-0.03,0.15-0.061,0.29-0.091,0.44c-0.029,0.18-0.06,0.37-0.079,0.56c-0.03,0.19-0.051,0.39-0.061,0.58
					c-0.03,0.39-0.04,0.8-0.05,1.23c0,0.01-0.01,0.01-0.01,0.02l0.01,0.01c0,0.02,0,0.03,0.01,0.04v0.04c0,0.03,0.01,0.05,0.03,0.07
					c0.02,0.05,0.05,0.09,0.08,0.13c0.069,0.07,0.17,0.11,0.28,0.11H155c0.15,0,0.29-0.09,0.35-0.23c0.021-0.03,0.03-0.07,0.03-0.12
					c0.01-0.01,0.01-0.02,0.01-0.03v-0.01l0.011-0.01C155.4,46.16,155.39,46.16,155.39,46.16z M131.94,19.26
					c0,0.14-0.011,0.28-0.021,0.42v0.04c-0.03,0.27-0.09,0.54-0.17,0.79c-0.04,0.15-0.1,0.29-0.16,0.43
					c-0.05,0.11-0.1,0.22-0.16,0.33c-0.05,0.1-0.109,0.2-0.18,0.3c-0.09,0.15-0.2,0.28-0.31,0.42c-0.091,0.1-0.181,0.2-0.28,0.3
					h-0.01c-0.131,0.14-0.29,0.27-0.45,0.38c-0.17,0.12-0.34,0.23-0.521,0.32c-0.569,0.31-1.239,0.48-1.939,0.48
					c-0.19,0-0.38-0.01-0.57-0.04c-0.09-0.01-0.18-0.03-0.28-0.05c-0.13-0.02-0.26-0.05-0.39-0.1c-0.11-0.03-0.21-0.06-0.31-0.1
					c-0.16-0.06-0.311-0.14-0.46-0.22c-0.12-0.06-0.23-0.13-0.351-0.21c-0.11-0.07-0.22-0.15-0.32-0.24
					c-0.09-0.07-0.17-0.14-0.239-0.22h-0.011c-0.029-0.03-0.06-0.06-0.079-0.09c-0.091-0.08-0.171-0.17-0.24-0.26
					c-0.05-0.06-0.101-0.12-0.141-0.18c-0.04-0.05-0.069-0.09-0.1-0.14c-0.08-0.12-0.15-0.23-0.21-0.35
					c-0.07-0.12-0.13-0.24-0.18-0.37c-0.051-0.13-0.101-0.26-0.141-0.39c-0.08-0.25-0.14-0.52-0.17-0.79v-0.04
					c-0.01-0.14-0.02-0.28-0.02-0.42c0-2.32,1.88-4.2,4.21-4.2C130.06,15.06,131.94,16.94,131.94,19.26z"/>
				<path fill="#EAEAEA" d="M155.398,46.168c0,0.004-0.005,0.008-0.005,0.011c-0.005,0.218-0.181,0.395-0.397,0.395h-54.519
					c-0.216,0-0.392-0.176-0.399-0.395c0-0.003-0.005-0.007-0.005-0.011c0-0.005,0.005-0.009,0.005-0.013
					c0.012-0.848,0.061-1.642,0.191-2.374h54.932c0.131,0.732,0.18,1.525,0.192,2.374C155.394,46.16,155.398,46.164,155.398,46.168z
					"/>
			</g>
			<g>
				<path fill="#FFFFFF" d="M112.909,37.39l-7.457,1.383c-4.589,1.182-5.324,3.777-5.374,7.38c0,0.004-0.005,0.008-0.005,0.017
					c0,0.004,0.005,0.009,0.005,0.012c0,0.024,0.004,0.05,0.008,0.075c0.089-3.438,0.911-5.917,5.366-7.067l7.457-1.382
					c0,0,1.916-0.694,1.916-2.153v-0.418C114.825,36.695,112.909,37.39,112.909,37.39z"/>
				<path fill="#FFFFFF" d="M127.736,23.473c-2.255,0-4.092-1.768-4.205-3.991c-0.005,0.067-0.005,0.133-0.005,0.199
					c0,2.324,1.885,4.209,4.21,4.209c2.323,0,4.203-1.886,4.203-4.209c0-0.066,0-0.132-0.004-0.199
					C131.823,21.705,129.989,23.473,127.736,23.473z"/>
				<path fill="#FFFFFF" d="M140.646,27.171c0,0,0.158-1.182-1.608-1.876c-1.769-0.689-4.465-3.348-4.465-5.73
					c0-3.778-3.059-6.842-6.836-6.842c-3.779,0-6.837,3.063-6.837,6.842c0,2.382-2.695,5.041-4.465,5.73
					c-1.767,0.694-1.609,1.876-1.609,1.876s0,0.105,0,0.284c0.018-0.33,0.202-1.191,1.609-1.742c1.77-0.69,4.465-3.348,4.465-5.73
					c0-3.777,3.058-6.842,6.837-6.842c3.777,0,6.836,3.064,6.836,6.842c0,2.382,2.696,5.04,4.465,5.73
					c1.406,0.551,1.592,1.412,1.608,1.742C140.646,27.276,140.646,27.171,140.646,27.171z"/>
				<path fill="#FFFFFF" d="M155.394,46.153c-0.045-3.603-0.786-6.198-5.374-7.38l-7.456-1.383c0,0-1.918-0.695-1.918-2.153v0.418
					c0,1.458,1.918,2.153,1.918,2.153l7.456,1.382c4.438,1.146,5.277,3.611,5.37,7.034c0.004-0.012,0.004-0.028,0.004-0.042
					c0-0.003,0.005-0.008,0.005-0.012C155.398,46.161,155.394,46.157,155.394,46.153z"/>
				<path fill="#FFFFFF" d="M140.646,27.455v0.134C140.646,27.589,140.653,27.539,140.646,27.455z"/>
				<path fill="#FFFFFF" d="M114.825,27.589v-0.134C114.818,27.539,114.825,27.589,114.825,27.589z"/>
			</g>
		</g>
	</g>
	<g id="Mechanical_pencil">
		<path opacity="0.1" d="M205.02,100.79l-3.1,4.18c-0.1,0.14-0.2,0.32-0.29,0.51l-19.04,42.8l-0.38,0.85l-0.5,1.13l-0.05,0.11
			l-0.54,1.22l-0.22,0.49l-0.051,0.1l-0.5,1.13l-0.59,1.341c-0.02,0.029-0.029,0.069-0.029,0.109c0,0.11,0.079,0.23,0.199,0.29
			l0.66,0.29c0,0,0,0,0-0.01l0.53,0.24l0.88,0.39c0.16,0.08,0.35,0.021,0.41-0.13l0.109-0.24l0.07-0.16l0.36-0.81l0.06-0.13
			l0.16-0.37l0.061-0.13l0.279-0.62l0.05-0.11l0.171-0.39l0.05-0.101l0.54-1.21l0.04-0.109l0.17-0.38l0.05-0.11l0.29-0.64
			l0.06-0.141l0.15-0.35h0.01l0.05-0.13l19.15-43.04c0.04-0.1,0.08-0.2,0.11-0.29c0.01-0.03,0.02-0.05,0.02-0.07
			c0.021-0.05,0.03-0.1,0.04-0.14c0.01-0.02,0.01-0.04,0.01-0.05l0.03-0.15l0.94-4.68l0.06-0.28l0.24-1.18L205.02,100.79z"/>
		<g>
			<path fill="#C44A4E" d="M182.874,155.748c0.164,0.072,0.351,0.013,0.415-0.134l0.593-1.334l-2.656-1.182l-0.593,1.334
				c-0.064,0.146,0.016,0.324,0.18,0.397L182.874,155.748z"/>
			<path fill="#AC4145" d="M180.812,154.83l0.65,0.29c-0.164-0.073-0.244-0.25-0.18-0.396l0.596-1.335l-0.653-0.29l-0.593,1.334
				C180.568,154.579,180.648,154.757,180.812,154.83z"/>
			
				<rect x="181.071" y="153.684" transform="matrix(0.9135 0.4067 -0.4067 0.9135 78.3169 -60.9457)" opacity="0.1" width="2.908" height="0.145"/>
			
				<rect x="182.98" y="149.395" transform="matrix(0.9137 0.4063 -0.4063 0.9137 76.6437 -62.0453)" opacity="0.1" width="2.908" height="0.145"/>
		</g>
		<polygon fill="#E2A97B" points="205.013,106.642 202.463,105.507 202.7,104.975 205.791,100.814 206.271,101.028 205.249,106.109 
					"/>
		<path fill="#0EAFAB" d="M204.39,106.364c0.241-0.541,0.146-1.111-0.215-1.271c-0.36-0.16-0.848,0.149-1.089,0.691l0,0
			l-20.776,46.7l1.304,0.579L204.39,106.364z"/>
		<path fill="#0FC1C1" d="M205.066,106.666L205.066,106.666c0.241-0.542,0.285-1.048,0.098-1.132
			c-0.187-0.083-0.533,0.29-0.774,0.831l-19.334,43.46l0.677,0.3L205.066,106.666z"/>
		<path fill="#08847E" d="M203.086,105.784L203.086,105.784c0.241-0.542,0.285-1.048,0.099-1.131
			c-0.188-0.084-0.534,0.289-0.775,0.83l0.001,0l-19.335,43.458l0.676,0.302L203.086,105.784z"/>
		<polygon fill="#1C1C1C" points="206.271,101.028 205.791,100.814 206.509,99.848 		"/>
		
			<rect x="181.204" y="150.157" transform="matrix(-0.4068 0.9135 -0.9135 -0.4068 396.612 45.6657)" fill="#D3984C" width="4.55" height="2.908"/>
		
			<rect x="182.196" y="151.682" transform="matrix(-0.4065 0.9137 -0.9137 -0.4065 398.3762 45.3145)" opacity="0.3" fill="#FFFFFF" width="4.548" height="0.74"/>
		
			<rect x="180.214" y="150.801" transform="matrix(-0.4066 0.9136 -0.9136 -0.4066 394.7964 45.9098)" opacity="0.3" width="4.549" height="0.74"/>
		
			<rect x="183.819" y="149.26" transform="matrix(-0.4038 0.9148 -0.9148 -0.4038 396.0137 43.3614)" opacity="0.1" width="0.118" height="2.908"/>
		
			<rect x="183.016" y="151.064" transform="matrix(-0.4038 0.9148 -0.9148 -0.4038 396.5371 46.6297)" opacity="0.1" width="0.118" height="2.909"/>
	</g>
	<g id="Shavings">
		<path opacity="0.1" d="M196.588,102.113c0,0,0.08-0.096,0.117-0.043c0.107,0.155,0.375,0.507,0.57,0.492
			c0.114-0.009,0.198-0.017,0.26-0.068c0.076-0.064,0.179-0.017,0.168-0.033c-0.011-0.017,0.545,1.127,0.715,1.496
			c0.037,0.08-0.028,0.168-0.115,0.158l-0.127-0.015c-0.056-0.006-0.108,0.03-0.122,0.085l-0.07,0.293
			c-0.015,0.06-0.075,0.098-0.135,0.083l-0.234-0.056c-0.044-0.011-0.089,0.006-0.116,0.042l-0.191,0.254
			c-0.037,0.049-0.106,0.059-0.156,0.023l-0.23-0.168c-0.04-0.029-0.094-0.029-0.133,0l-0.162,0.12
			c-0.053,0.038-0.125,0.025-0.161-0.029l-0.175-0.263c-0.028-0.043-0.082-0.062-0.132-0.044l-0.136,0.049
			c-0.061,0.022-0.127-0.011-0.146-0.073l-0.087-0.284c-0.019-0.06-0.083-0.094-0.143-0.074l-0.218,0.07
			c-0.067,0.021-0.138-0.024-0.146-0.095l-0.043-0.387c-0.007-0.061-0.062-0.105-0.122-0.099l-0.488,0.046L196.588,102.113z"/>
		<path opacity="0.1" d="M195.863,100.088l-1.247-0.086c-0.094-0.006-0.162,0.088-0.126,0.175l0.022,0.052
			c0.016,0.04,0.012,0.085-0.013,0.121l-0.102,0.147c-0.036,0.053-0.027,0.125,0.021,0.167l0.128,0.112
			c0.04,0.036,0.054,0.093,0.034,0.143l-0.052,0.128c-0.027,0.069,0.01,0.146,0.081,0.168l0.182,0.056
			c0.059,0.018,0.097,0.075,0.089,0.136v0.003c-0.011,0.085,0.064,0.155,0.148,0.14l0.188-0.035c0.031-0.006,0.06-0.024,0.079-0.05
			l0.698-0.958c0,0-0.094-0.167-0.091-0.238C195.908,100.201,195.863,100.088,195.863,100.088z"/>
		<g opacity="0.1">
			<path d="M200.186,99.289c-0.293-0.079-0.88-0.205-1.199-0.252c-0.015,0.063-0.036,0.168-0.036,0.191
				c-0.001,0.094-0.088,0.358-0.088,0.358l-0.084,0.076l-0.003,0.134c-0.001,0.048-0.029,0.092-0.072,0.114l-0.178,0.087
				c-0.024,0.012-0.054,0.016-0.081,0.011l-0.206-0.039c-0.028-0.005-0.058-0.001-0.084,0.012l-0.277,0.143
				c-0.027,0.014-0.059,0.018-0.089,0.011l-0.498-0.122l-0.817,0.937c-0.022,0.027-0.033,0.063-0.029,0.099l0.022,0.205
				c0.009,0.074,0.077,0.125,0.151,0.113l0.07-0.012c0.049-0.008,0.099,0.012,0.127,0.053l0.098,0.137
				c0.041,0.056,0.117,0.071,0.176,0.034l0.142-0.09c0.057-0.036,0.132-0.023,0.173,0.031l0.066,0.087
				c0.041,0.054,0.115,0.067,0.173,0.031l0.105-0.066c0.05-0.032,0.115-0.025,0.158,0.015l0.15,0.141
				c0.056,0.052,0.144,0.045,0.19-0.015l0.065-0.083c0.045-0.058,0.129-0.067,0.185-0.021l0.147,0.122
				c0.057,0.047,0.142,0.037,0.186-0.021l0.066-0.086c0.035-0.045,0.095-0.062,0.147-0.043l0.168,0.061
				c0.057,0.021,0.119,0,0.152-0.05l0.098-0.146c0.028-0.044,0.081-0.066,0.132-0.056l0.009,0.001
				c0.091,0.017,0.17-0.063,0.151-0.154l-0.035-0.171c-0.013-0.062,0.021-0.125,0.081-0.148l0.002,0
				c0.062-0.023,0.096-0.088,0.08-0.152l-0.057-0.238l0.172-0.017l-0.093-0.31c-0.021-0.073,0.024-0.148,0.099-0.164
				c0.071-0.016,0.144-0.034,0.141-0.048c-0.004-0.016-0.049-0.156-0.082-0.257c-0.021-0.06,0.007-0.126,0.062-0.155l0.089-0.046
				C200.316,99.475,200.3,99.319,200.186,99.289z"/>
		</g>
		<path fill="#D99C6B" d="M197.567,102.188c0.005,0.008-0.016,0.001-0.046-0.001l0,0l0.458,1.652l0,0
			c0.019-0.009,0.039-0.015,0.062-0.012l0.126,0.015c0.087,0.01,0.152-0.079,0.115-0.159
			C198.112,103.316,197.557,102.172,197.567,102.188z"/>
		<path fill="#E2A97B" d="M196.453,101.842c0,0,0.079-0.097,0.116-0.044c0.107,0.155,0.376,0.507,0.57,0.492
			c0.114-0.009,0.198-0.017,0.26-0.068c0.077-0.063,0.179-0.017,0.168-0.033c-0.011-0.017,0.545,1.128,0.715,1.496
			c0.037,0.08-0.028,0.169-0.115,0.159l-0.126-0.015c-0.057-0.007-0.109,0.03-0.123,0.085l-0.07,0.293
			c-0.014,0.06-0.074,0.097-0.135,0.083l-0.234-0.056c-0.044-0.01-0.089,0.006-0.116,0.042l-0.191,0.254
			c-0.037,0.049-0.106,0.059-0.156,0.023l-0.23-0.168c-0.04-0.029-0.094-0.029-0.133,0l-0.162,0.12
			c-0.052,0.038-0.125,0.025-0.161-0.028l-0.174-0.264c-0.029-0.043-0.083-0.062-0.133-0.044l-0.136,0.049
			c-0.061,0.022-0.127-0.011-0.146-0.073l-0.087-0.284c-0.019-0.06-0.082-0.093-0.143-0.074l-0.218,0.07
			c-0.067,0.022-0.138-0.024-0.146-0.094l-0.043-0.387c-0.007-0.061-0.062-0.105-0.122-0.1l-0.488,0.046L196.453,101.842z"/>
		<path fill="#DEA06D" d="M197.567,102.188c0.005,0.008-0.016,0.001-0.046-0.001l0,0c0,0,0.497,1.638,0.52,1.641l0.126,0.015
			c0.087,0.01,0.152-0.079,0.115-0.159C198.112,103.316,197.557,102.172,197.567,102.188z"/>
		<path fill="#DEA06D" d="M196.83,102.116l-1.212,1.695c0.016,0.014,0.028,0.03,0.035,0.051l0.087,0.284
			c0.019,0.062,0.085,0.095,0.146,0.073l0.136-0.049c0.05-0.018,0.104,0,0.133,0.044l0.174,0.264
			c0.016,0.023,0.038,0.037,0.062,0.044L197,102.25C196.943,102.218,196.886,102.17,196.83,102.116z"/>
		<path fill="#E2A97B" d="M195.863,99.817l-1.247-0.086c-0.094-0.006-0.162,0.088-0.126,0.175l0.022,0.052
			c0.016,0.04,0.012,0.085-0.013,0.121l-0.102,0.147c-0.036,0.053-0.027,0.125,0.021,0.167l0.128,0.113
			c0.04,0.035,0.054,0.092,0.034,0.142l-0.052,0.128c-0.027,0.069,0.01,0.147,0.081,0.168l0.182,0.056
			c0.059,0.018,0.097,0.076,0.089,0.136v0.003c-0.011,0.085,0.064,0.156,0.148,0.14l0.188-0.035c0.031-0.006,0.06-0.023,0.079-0.05
			l0.698-0.957c0,0-0.094-0.168-0.091-0.239C195.908,99.93,195.863,99.817,195.863,99.817z"/>
		<g>
			<path fill="#E2A97B" d="M200.05,99.018c-0.293-0.079-0.88-0.205-1.199-0.252c-0.015,0.063-0.036,0.168-0.036,0.191
				c-0.001,0.093-0.088,0.357-0.088,0.357l-0.084,0.077l-0.003,0.133c-0.001,0.049-0.028,0.093-0.072,0.114l-0.178,0.087
				c-0.024,0.013-0.054,0.017-0.081,0.011l-0.206-0.039c-0.028-0.006-0.058-0.001-0.084,0.012l-0.276,0.143
				c-0.028,0.014-0.06,0.018-0.09,0.011l-0.498-0.122l-0.816,0.937c-0.023,0.027-0.034,0.063-0.03,0.099l0.023,0.205
				c0.008,0.074,0.077,0.126,0.15,0.114l0.07-0.012c0.049-0.008,0.099,0.012,0.127,0.053l0.098,0.137
				c0.041,0.056,0.118,0.071,0.176,0.034l0.142-0.09c0.057-0.037,0.132-0.023,0.173,0.031l0.066,0.087
				c0.041,0.054,0.116,0.067,0.173,0.031l0.105-0.066c0.05-0.032,0.115-0.025,0.158,0.015l0.15,0.14
				c0.056,0.052,0.144,0.045,0.19-0.015l0.065-0.083c0.045-0.058,0.129-0.066,0.186-0.02l0.146,0.121
				c0.057,0.047,0.142,0.037,0.187-0.021l0.065-0.086c0.035-0.045,0.095-0.062,0.148-0.043l0.167,0.062
				c0.057,0.021,0.12,0,0.153-0.05l0.097-0.146c0.028-0.043,0.081-0.065,0.132-0.056l0.009,0.001
				c0.091,0.018,0.171-0.063,0.151-0.154l-0.035-0.171c-0.013-0.062,0.021-0.125,0.081-0.148l0.002-0.001
				c0.062-0.023,0.096-0.088,0.08-0.152l-0.057-0.238l0.172-0.017l-0.093-0.31c-0.021-0.073,0.024-0.149,0.099-0.165
				c0.071-0.015,0.144-0.034,0.141-0.047c-0.004-0.017-0.049-0.156-0.082-0.257c-0.02-0.061,0.007-0.126,0.063-0.155l0.088-0.046
				C200.182,99.203,200.164,99.048,200.05,99.018z"/>
		</g>
		<path fill="#0FC1C1" d="M198.041,103.828l0.126,0.015c0.015,0.001,0.029,0,0.042-0.004c-0.144-0.083-0.32-0.16-0.394-0.103
			c-0.062,0.049-0.05,0.393-0.17,0.363c-0.151-0.038-0.279-0.153-0.352-0.072c-0.09,0.1-0.157,0.373-0.25,0.315
			c-0.084-0.052-0.218-0.228-0.352-0.222c-0.11,0.004-0.292,0.259-0.343,0.146c-0.108-0.242-0.064-0.378-0.404-0.257
			c-0.154,0.055-0.102-0.215-0.169-0.333c-0.067-0.119-0.336,0.003-0.449-0.031s-0.042-0.398-0.152-0.508
			c-0.038-0.038-0.295,0.007-0.495,0.047l-0.186,0.14l0.488-0.046c0.061-0.005,0.115,0.039,0.122,0.1l0.043,0.387
			c0.008,0.07,0.078,0.116,0.146,0.094l0.218-0.07c0.061-0.019,0.124,0.014,0.143,0.074l0.087,0.284
			c0.019,0.062,0.085,0.095,0.146,0.073l0.136-0.049c0.05-0.018,0.104,0,0.133,0.044l0.174,0.264
			c0.036,0.054,0.109,0.066,0.161,0.028l0.162-0.12c0.039-0.029,0.093-0.03,0.133,0l0.23,0.168c0.05,0.036,0.119,0.025,0.156-0.023
			l0.191-0.254c0.027-0.036,0.072-0.052,0.116-0.042l0.234,0.056c0.061,0.014,0.121-0.023,0.135-0.083l0.07-0.293
			C197.932,103.858,197.984,103.821,198.041,103.828z"/>
		<g>
			<path fill="#DEA06D" d="M198.633,99.562c-0.011,0.033-0.033,0.061-0.065,0.076l-0.026,0.013l1.189,0.938
				c0.017-0.028,0.023-0.062,0.015-0.096l-0.057-0.238l0.165-0.016L198.633,99.562z"/>
			<path fill="#DEA06D" d="M198.475,99.684l-0.085,0.042c-0.01,0.005-0.021,0.008-0.032,0.01c0.066,0.271,0.357,1.173,0.486,1.567
				c0.021-0.003,0.043-0.003,0.064,0.005l0.167,0.062c0.016,0.006,0.031,0.007,0.048,0.007l0.101-0.053
				c0.002-0.001,0.003-0.003,0.005-0.004l0.097-0.146c0.022-0.034,0.06-0.054,0.1-0.057
				C199.246,100.851,198.649,99.963,198.475,99.684z"/>
			<path fill="#DEA06D" d="M198.019,99.71l-0.276,0.143c-0.017,0.008-0.034,0.012-0.052,0.013l-0.565,1.339
				c0.051-0.016,0.108-0.001,0.142,0.043l0.066,0.087c0.041,0.054,0.116,0.067,0.173,0.031l0.105-0.066
				c0.007-0.004,0.014-0.006,0.021-0.009c0.13-0.478,0.357-1.318,0.428-1.594C198.047,99.699,198.032,99.703,198.019,99.71z"/>
		</g>
		<path fill="#0FC1C1" d="M198.908,101.308l0.167,0.062c0.032,0.012,0.066,0.009,0.097-0.004c-0.088-0.035-0.114-0.06-0.19-0.118
			c-0.218-0.167-0.235-0.15-0.323,0.001c-0.082,0.142-0.104,0.116-0.25-0.035c-0.182-0.188-0.207-0.148-0.347,0.004
			c-0.099,0.109-0.09,0.036-0.187-0.084c-0.131-0.161-0.149-0.142-0.299-0.037c-0.159,0.113-0.152,0.042-0.27-0.129
			c-0.071-0.103-0.219,0.039-0.321,0.123c-0.102,0.085-0.12-0.123-0.166-0.258c-0.047-0.136-0.157,0.004-0.29,0.081
			c-0.132,0.075-0.184-0.135-0.203-0.213c-0.014,0.024-0.022,0.05-0.019,0.078l0.023,0.205c0.008,0.074,0.077,0.126,0.15,0.114
			l0.07-0.012c0.049-0.008,0.099,0.012,0.127,0.053l0.098,0.137c0.041,0.056,0.118,0.071,0.176,0.034l0.142-0.09
			c0.057-0.037,0.132-0.023,0.173,0.031l0.066,0.087c0.041,0.054,0.116,0.067,0.173,0.031l0.105-0.066
			c0.05-0.032,0.115-0.025,0.158,0.015l0.15,0.14c0.056,0.052,0.144,0.045,0.19-0.015l0.065-0.083
			c0.045-0.058,0.129-0.066,0.186-0.02l0.146,0.121c0.057,0.047,0.142,0.037,0.187-0.021l0.065-0.086
			C198.795,101.306,198.854,101.288,198.908,101.308z"/>
		<path fill="#0FC1C1" d="M194.882,101.136v0.003c-0.011,0.085,0.064,0.156,0.148,0.14l0.152-0.028
			c-0.223,0.018-0.166-0.099-0.149-0.188c0.02-0.107,0.073-0.192-0.149-0.215c-0.229-0.023-0.28,0.018-0.147-0.217
			c0.133-0.234,0.091-0.249-0.124-0.325c-0.186-0.066-0.043-0.11,0.079-0.221c0.099-0.089,0.07-0.096-0.028-0.167
			c-0.084-0.06-0.085-0.1,0.017-0.182l-0.063-0.004c-0.094-0.006-0.162,0.088-0.126,0.175l0.022,0.052
			c0.016,0.04,0.012,0.085-0.013,0.121l-0.102,0.147c-0.036,0.053-0.027,0.125,0.021,0.167l0.128,0.113
			c0.04,0.035,0.054,0.092,0.034,0.142l-0.052,0.128c-0.027,0.069,0.01,0.147,0.081,0.168l0.182,0.056
			C194.852,101.018,194.89,101.075,194.882,101.136z"/>
	</g>
	<g id="Shavings_1_">
		<path opacity="0.1" d="M202.062,98.113c0,0-0.012-0.087,0.033-0.081c0.131,0.02,0.44,0.052,0.526-0.055
			c0.05-0.062,0.087-0.11,0.091-0.166c0.004-0.07,0.077-0.099,0.063-0.101c-0.014-0.003,0.838,0.264,1.107,0.355
			c0.059,0.019,0.073,0.095,0.026,0.134l-0.069,0.058c-0.03,0.025-0.037,0.07-0.016,0.104l0.117,0.177
			c0.022,0.037,0.013,0.085-0.022,0.109l-0.142,0.093c-0.027,0.017-0.04,0.048-0.035,0.08l0.038,0.22
			c0.007,0.042-0.021,0.083-0.063,0.091l-0.197,0.036c-0.033,0.007-0.06,0.035-0.063,0.068l-0.017,0.141
			c-0.006,0.045-0.047,0.076-0.093,0.068l-0.219-0.037c-0.035-0.007-0.07,0.012-0.086,0.046l-0.039,0.093
			c-0.019,0.042-0.067,0.059-0.108,0.039l-0.187-0.092c-0.04-0.02-0.088-0.003-0.106,0.037l-0.068,0.145
			c-0.022,0.045-0.079,0.059-0.119,0.029l-0.218-0.165c-0.035-0.025-0.084-0.019-0.109,0.015l-0.212,0.271L202.062,98.113z"/>
		<path opacity="0.1" d="M200.679,97.509l-0.646,0.594c-0.048,0.045-0.033,0.126,0.029,0.149l0.037,0.014
			c0.028,0.01,0.049,0.035,0.056,0.064l0.026,0.123c0.01,0.044,0.051,0.074,0.096,0.069l0.119-0.012
			c0.037-0.002,0.072,0.018,0.089,0.052l0.04,0.087c0.022,0.047,0.08,0.066,0.125,0.04l0.116-0.066
			c0.038-0.021,0.085-0.013,0.112,0.02l0.002,0.002c0.038,0.046,0.11,0.042,0.143-0.008l0.073-0.113
			c0.011-0.019,0.016-0.042,0.013-0.065l-0.152-0.817c0,0-0.132-0.033-0.166-0.068C200.757,97.54,200.679,97.509,200.679,97.509z"/>
		<g opacity="0.1">
			<path d="M202.352,94.916c-0.182,0.112-0.528,0.351-0.706,0.491c0.025,0.038,0.068,0.1,0.08,0.11
				c0.048,0.046,0.141,0.217,0.141,0.217l-0.002,0.081l0.067,0.066c0.023,0.023,0.033,0.059,0.022,0.091l-0.04,0.132
				c-0.006,0.019-0.018,0.036-0.034,0.047l-0.119,0.086c-0.016,0.012-0.027,0.029-0.033,0.049l-0.062,0.21
				c-0.006,0.02-0.019,0.039-0.037,0.05l-0.302,0.196l0.085,0.869c0.003,0.024,0.016,0.047,0.036,0.062l0.115,0.087
				c0.042,0.031,0.102,0.021,0.131-0.023l0.027-0.041c0.02-0.03,0.054-0.044,0.089-0.04l0.116,0.016
				c0.048,0.006,0.093-0.025,0.103-0.073l0.021-0.116c0.01-0.046,0.053-0.079,0.1-0.073l0.076,0.008
				c0.048,0.004,0.09-0.027,0.1-0.073l0.017-0.086c0.008-0.041,0.043-0.071,0.084-0.074l0.144-0.009
				c0.054-0.003,0.093-0.052,0.085-0.104L202.644,97c-0.008-0.05,0.028-0.097,0.078-0.104l0.134-0.017
				c0.051-0.006,0.087-0.055,0.078-0.105l-0.012-0.076c-0.006-0.04,0.014-0.078,0.049-0.096l0.112-0.056
				c0.038-0.019,0.058-0.061,0.048-0.102l-0.027-0.12c-0.009-0.035,0.005-0.073,0.035-0.094l0.005-0.003
				c0.052-0.038,0.05-0.117-0.006-0.151l-0.104-0.065c-0.038-0.022-0.053-0.07-0.036-0.112v-0.001
				c0.019-0.042,0.002-0.092-0.038-0.114l-0.149-0.086l0.074-0.096l-0.202-0.102c-0.049-0.023-0.064-0.084-0.037-0.129
				c0.026-0.044,0.052-0.09,0.044-0.095c-0.011-0.006-0.104-0.05-0.171-0.082c-0.041-0.018-0.062-0.064-0.05-0.107l0.02-0.067
				C202.51,94.938,202.423,94.873,202.352,94.916z"/>
		</g>
		<path fill="#D99C6B" d="M202.571,97.649c0.006,0.002-0.007,0.009-0.022,0.023l0,0l1.064,0.562l0,0
			c0.004-0.013,0.011-0.027,0.023-0.037l0.068-0.058c0.047-0.039,0.032-0.116-0.025-0.135
			C203.41,97.915,202.558,97.647,202.571,97.649z"/>
		<path fill="#E2A97B" d="M201.857,98.052c0,0-0.011-0.087,0.034-0.081c0.131,0.02,0.439,0.053,0.525-0.054
			c0.051-0.063,0.087-0.109,0.09-0.165c0.006-0.07,0.078-0.1,0.064-0.102s0.839,0.265,1.108,0.355
			c0.058,0.02,0.072,0.096,0.025,0.135l-0.068,0.058c-0.03,0.025-0.037,0.07-0.016,0.104l0.115,0.178
			c0.025,0.035,0.015,0.084-0.021,0.108l-0.142,0.093c-0.026,0.017-0.04,0.048-0.034,0.079l0.037,0.221
			c0.007,0.042-0.021,0.083-0.063,0.09l-0.196,0.038c-0.034,0.006-0.06,0.034-0.063,0.068l-0.018,0.141
			c-0.006,0.044-0.047,0.076-0.092,0.068l-0.219-0.038c-0.036-0.006-0.07,0.013-0.086,0.046l-0.041,0.093
			c-0.018,0.041-0.066,0.06-0.106,0.039l-0.188-0.092c-0.039-0.02-0.087-0.003-0.106,0.037l-0.069,0.146
			c-0.021,0.044-0.078,0.059-0.117,0.029l-0.219-0.165c-0.034-0.026-0.083-0.019-0.109,0.015l-0.212,0.271L201.857,98.052z"/>
		<path fill="#DEA06D" d="M202.571,97.649c0.006,0.002-0.007,0.009-0.022,0.023l0,0c0,0,1.075,0.535,1.088,0.525l0.068-0.058
			c0.047-0.039,0.032-0.116-0.025-0.135C203.41,97.915,202.558,97.647,202.571,97.649z"/>
		<path fill="#DEA06D" d="M202.18,97.991l0.282,1.436c0.014-0.001,0.028,0,0.042,0.006l0.188,0.092
			c0.04,0.021,0.089,0.002,0.106-0.039l0.041-0.093c0.016-0.034,0.05-0.052,0.086-0.046l0.219,0.038
			c0.019,0.003,0.037-0.002,0.052-0.011l-0.866-1.405C202.286,97.983,202.233,97.989,202.18,97.991z"/>
		<path fill="#E2A97B" d="M200.54,97.378l-0.645,0.595c-0.049,0.045-0.033,0.125,0.028,0.149l0.037,0.014
			c0.028,0.011,0.05,0.035,0.056,0.065l0.026,0.123c0.01,0.043,0.051,0.073,0.096,0.069l0.119-0.011
			c0.037-0.002,0.073,0.018,0.089,0.051l0.04,0.088c0.022,0.048,0.08,0.066,0.125,0.04l0.116-0.066
			c0.037-0.021,0.085-0.012,0.112,0.021l0.002,0.001c0.038,0.047,0.11,0.042,0.143-0.008l0.073-0.113
			c0.012-0.019,0.017-0.042,0.013-0.064l-0.152-0.818c0,0-0.132-0.032-0.166-0.068C200.618,97.409,200.54,97.378,200.54,97.378z"/>
		<g>
			<path fill="#E2A97B" d="M202.147,94.855c-0.181,0.111-0.528,0.35-0.706,0.491c0.025,0.037,0.068,0.1,0.08,0.11
				c0.048,0.045,0.141,0.217,0.141,0.217l-0.001,0.079l0.066,0.066c0.024,0.024,0.033,0.06,0.023,0.091l-0.041,0.133
				c-0.006,0.019-0.018,0.036-0.033,0.046l-0.119,0.087c-0.017,0.012-0.029,0.029-0.034,0.049l-0.061,0.209
				c-0.006,0.022-0.02,0.04-0.038,0.051l-0.302,0.196l0.085,0.868c0.003,0.025,0.017,0.047,0.036,0.062l0.115,0.087
				c0.042,0.031,0.103,0.021,0.131-0.022l0.028-0.042c0.02-0.028,0.054-0.044,0.088-0.039l0.116,0.017
				c0.049,0.005,0.094-0.026,0.103-0.074l0.021-0.115c0.009-0.046,0.052-0.078,0.1-0.074l0.076,0.009
				c0.048,0.004,0.091-0.028,0.1-0.074l0.017-0.086c0.008-0.04,0.042-0.071,0.084-0.073l0.144-0.009
				c0.054-0.003,0.093-0.052,0.085-0.104l-0.012-0.074c-0.008-0.05,0.028-0.098,0.08-0.104l0.132-0.017
				c0.052-0.006,0.088-0.054,0.079-0.105l-0.013-0.075c-0.006-0.04,0.014-0.079,0.05-0.097l0.111-0.056
				c0.038-0.019,0.058-0.061,0.049-0.103l-0.028-0.119c-0.009-0.036,0.006-0.074,0.035-0.094l0.005-0.004
				c0.053-0.038,0.05-0.117-0.006-0.151l-0.104-0.064c-0.038-0.023-0.055-0.071-0.037-0.112l0.001-0.002
				c0.018-0.042,0-0.091-0.04-0.114l-0.147-0.086l0.074-0.095l-0.204-0.102c-0.047-0.024-0.063-0.084-0.036-0.13
				c0.026-0.043,0.052-0.089,0.044-0.094c-0.01-0.006-0.104-0.05-0.171-0.082c-0.04-0.019-0.062-0.064-0.049-0.107l0.019-0.067
				C202.307,94.877,202.218,94.812,202.147,94.855z"/>
		</g>
		<path fill="#0FC1C1" d="M203.637,98.198l0.068-0.058c0.008-0.006,0.014-0.015,0.018-0.023c-0.11,0.033-0.235,0.086-0.241,0.151
			c-0.005,0.055,0.176,0.215,0.104,0.262c-0.093,0.06-0.213,0.069-0.206,0.145c0.008,0.094,0.114,0.26,0.04,0.279
			c-0.066,0.019-0.221,0.002-0.282,0.073c-0.051,0.058-0.009,0.274-0.091,0.245c-0.176-0.061-0.225-0.149-0.326,0.083
			c-0.047,0.105-0.159-0.052-0.251-0.074c-0.094-0.022-0.161,0.173-0.232,0.214c-0.073,0.042-0.224-0.17-0.333-0.167
			c-0.038,0.001-0.139,0.154-0.215,0.275l-0.018,0.162l0.212-0.271c0.026-0.033,0.075-0.041,0.109-0.015l0.219,0.165
			c0.039,0.03,0.097,0.016,0.117-0.029l0.069-0.146c0.02-0.04,0.067-0.056,0.106-0.037l0.188,0.092
			c0.04,0.021,0.089,0.002,0.106-0.039l0.041-0.093c0.016-0.034,0.05-0.052,0.086-0.046l0.219,0.038
			c0.045,0.008,0.086-0.024,0.092-0.068l0.018-0.141c0.004-0.034,0.029-0.062,0.063-0.068l0.196-0.038
			c0.042-0.007,0.07-0.048,0.063-0.09l-0.037-0.221c-0.006-0.031,0.008-0.062,0.034-0.079l0.142-0.093
			c0.036-0.024,0.047-0.073,0.021-0.108l-0.115-0.178C203.6,98.268,203.606,98.223,203.637,98.198z"/>
		<g>
			<path fill="#DEA06D" d="M201.744,95.84c0.011,0.021,0.015,0.046,0.007,0.07l-0.006,0.02l1.052-0.156
				c-0.007-0.022-0.021-0.042-0.043-0.053l-0.147-0.086l0.07-0.092L201.744,95.84z"/>
			<path fill="#DEA06D" d="M201.729,95.98l-0.02,0.063c-0.002,0.008-0.007,0.015-0.01,0.021c0.169,0.097,0.771,0.382,1.033,0.506
				c0.009-0.012,0.02-0.023,0.034-0.031l0.111-0.056c0.011-0.005,0.019-0.012,0.027-0.021l0.021-0.077
				c0.001-0.002,0.001-0.004,0.001-0.005l-0.028-0.119c-0.007-0.029,0.001-0.057,0.019-0.079
				C202.697,96.148,201.956,96.025,201.729,95.98z"/>
			<path fill="#DEA06D" d="M201.523,96.226l-0.061,0.209c-0.004,0.012-0.011,0.023-0.019,0.033l0.411,0.933
				c0.017-0.034,0.053-0.056,0.091-0.051l0.076,0.009c0.048,0.004,0.091-0.028,0.1-0.074l0.017-0.086
				c0.001-0.005,0.003-0.009,0.006-0.015c-0.182-0.296-0.501-0.817-0.608-0.985C201.531,96.206,201.526,96.215,201.523,96.226z"/>
		</g>
		<path fill="#0FC1C1" d="M202.768,96.541l0.111-0.056c0.022-0.01,0.036-0.029,0.045-0.051c-0.061,0.028-0.086,0.03-0.152,0.041
			c-0.189,0.03-0.189,0.048-0.155,0.165c0.033,0.11,0.01,0.108-0.139,0.111c-0.183,0.002-0.176,0.034-0.164,0.179
			c0.008,0.103-0.025,0.062-0.133,0.054c-0.146-0.011-0.145,0.008-0.163,0.135c-0.019,0.135-0.052,0.098-0.195,0.075
			c-0.088-0.013-0.086,0.131-0.092,0.224s-0.121,0.002-0.212-0.039c-0.092-0.042-0.074,0.082-0.099,0.187
			c-0.025,0.104-0.157,0.029-0.206,0.001c0.005,0.018,0.015,0.035,0.03,0.046l0.115,0.087c0.042,0.031,0.103,0.021,0.131-0.022
			l0.028-0.042c0.02-0.028,0.054-0.044,0.088-0.039l0.116,0.017c0.049,0.005,0.094-0.026,0.103-0.074l0.021-0.115
			c0.009-0.046,0.052-0.078,0.1-0.074l0.076,0.009c0.048,0.004,0.091-0.028,0.1-0.074l0.017-0.086
			c0.008-0.04,0.042-0.071,0.084-0.073l0.144-0.009c0.054-0.003,0.093-0.052,0.085-0.104l-0.012-0.074
			c-0.008-0.05,0.028-0.098,0.08-0.104l0.132-0.017c0.052-0.006,0.088-0.054,0.079-0.105l-0.013-0.075
			C202.712,96.598,202.731,96.559,202.768,96.541z"/>
		<path fill="#0FC1C1" d="M200.74,98.514l0.002,0.001c0.038,0.047,0.11,0.042,0.143-0.008l0.059-0.092
			c-0.098,0.123-0.13,0.037-0.168-0.015c-0.045-0.062-0.062-0.129-0.182-0.027c-0.122,0.105-0.126,0.151-0.182-0.029
			c-0.056-0.181-0.084-0.166-0.226-0.093c-0.123,0.062-0.077-0.031-0.075-0.146c0.003-0.093-0.015-0.082-0.099-0.065
			c-0.07,0.014-0.092-0.005-0.085-0.096l-0.032,0.03c-0.049,0.045-0.033,0.125,0.028,0.149l0.037,0.014
			c0.028,0.011,0.05,0.035,0.056,0.065l0.026,0.123c0.01,0.043,0.051,0.073,0.096,0.069l0.119-0.011
			c0.037-0.002,0.073,0.018,0.089,0.051l0.04,0.088c0.022,0.048,0.08,0.066,0.125,0.04l0.116-0.066
			C200.665,98.472,200.713,98.481,200.74,98.514z"/>
	</g>
	<g id="Polaroid">
		<g>
			<path opacity="0.1" d="M63.587,131.498c-0.039,0.249-0.274,0.422-0.524,0.383l-34.206-5.287c-0.25-0.039-0.423-0.273-0.385-0.523
				l5.698-36.855c0.038-0.25,0.273-0.424,0.523-0.385l33.829,4.724c0.25,0.039,0.8,0.838,0.762,1.087L63.587,131.498z"/>
			<path fill="#FFFFFF" d="M63.124,130.779c-0.039,0.25-0.275,0.423-0.524,0.384l-33.646-5.2c-0.249-0.039-0.421-0.274-0.383-0.524
				l5.678-36.731c0.039-0.25,0.273-0.423,0.524-0.384l33.646,5.201c0.25,0.039,0.422,0.274,0.383,0.524L63.124,130.779z"/>
			<path fill="#1C1C1C" d="M61.918,123.019c-0.025,0.167-0.184,0.282-0.35,0.256l-29.251-4.521c-0.165-0.026-0.28-0.183-0.255-0.35
				L36.19,91.7c0.025-0.167,0.183-0.282,0.349-0.256l29.25,4.521c0.167,0.026,0.282,0.183,0.257,0.35L61.918,123.019z"/>
			<path opacity="0.5" fill="#FFFFFF" d="M61.918,123.019l-0.023,0.152c-0.026,0.166-0.183,0.281-0.349,0.255l-29.251-4.522
				c-0.166-0.025-0.281-0.182-0.256-0.348l0.023-0.152c-0.025,0.167,0.09,0.323,0.255,0.35l29.251,4.521
				C61.734,123.301,61.893,123.186,61.918,123.019z"/>
		</g>
		<path opacity="0.05" fill="#FFFFFF" d="M51.665,93.781l-15.126-2.337c-0.166-0.026-0.323,0.089-0.349,0.256l-4.128,26.704
			c-0.025,0.167,0.09,0.323,0.255,0.35l6.564,1.015L51.665,93.781z"/>
	</g>
	<g id="Polaroid_1_">
		<g>
			<path opacity="0.1" d="M131.253,225.83c-0.039,0.25-0.274,0.423-0.524,0.385l-34.206-5.287c-0.25-0.039-0.423-0.275-0.385-0.525
				l5.698-36.854c0.038-0.25,0.273-0.424,0.523-0.385l33.829,4.724c0.25,0.039,0.8,0.839,0.762,1.088L131.253,225.83z"/>
			<path fill="#FFFFFF" d="M130.79,225.113c-0.039,0.249-0.275,0.422-0.524,0.383l-33.646-5.2c-0.249-0.038-0.421-0.274-0.383-0.524
				l5.678-36.73c0.039-0.251,0.273-0.424,0.524-0.385l33.646,5.201c0.25,0.038,0.422,0.273,0.383,0.523L130.79,225.113z"/>
			<path fill="#1C1C1C" d="M129.584,217.352c-0.025,0.168-0.184,0.282-0.35,0.257l-29.251-4.521c-0.165-0.026-0.28-0.183-0.255-0.35
				l4.128-26.704c0.025-0.167,0.183-0.282,0.349-0.256l29.25,4.521c0.167,0.026,0.282,0.183,0.257,0.35L129.584,217.352z"/>
			<path opacity="0.5" fill="#FFFFFF" d="M129.584,217.352l-0.023,0.152c-0.026,0.166-0.183,0.281-0.349,0.256l-29.251-4.522
				c-0.166-0.024-0.281-0.182-0.256-0.349l0.023-0.151c-0.025,0.167,0.09,0.323,0.255,0.35l29.251,4.521
				C129.4,217.634,129.559,217.52,129.584,217.352z"/>
		</g>
		<path opacity="0.05" fill="#FFFFFF" d="M119.331,188.114l-15.126-2.337c-0.166-0.026-0.323,0.089-0.349,0.256l-4.128,26.704
			c-0.025,0.167,0.09,0.323,0.255,0.35l6.564,1.015L119.331,188.114z"/>
	</g>
	<g id="Polaroid_2_">
		<g>
			<path opacity="0.1" d="M144.447,216.419c-0.164,0.193-0.454,0.219-0.648,0.058l-26.505-22.261
				c-0.192-0.163-0.219-0.455-0.056-0.649l23.985-28.555c0.161-0.195,0.453-0.221,0.646-0.058l26.474,21.583
				c0.194,0.163,0.249,1.132,0.088,1.324L144.447,216.419z"/>
			<path fill="#FFFFFF" d="M144.423,215.566c-0.162,0.193-0.454,0.218-0.647,0.055l-26.07-21.896
				c-0.193-0.162-0.218-0.452-0.056-0.646l23.903-28.461c0.164-0.193,0.454-0.221,0.647-0.057l26.07,21.896
				c0.194,0.163,0.219,0.453,0.056,0.646L144.423,215.566z"/>
			<path fill="#1C1C1C" d="M147.417,208.305c-0.108,0.13-0.304,0.146-0.432,0.038l-22.666-19.036
				c-0.127-0.108-0.145-0.302-0.035-0.431l17.378-20.691c0.108-0.13,0.302-0.146,0.431-0.039l22.665,19.035
				c0.129,0.109,0.146,0.302,0.037,0.433L147.417,208.305z"/>
			<path opacity="0.5" fill="#FFFFFF" d="M147.417,208.305l-0.099,0.117c-0.109,0.129-0.302,0.146-0.432,0.039l-22.664-19.038
				c-0.129-0.105-0.146-0.3-0.038-0.43l0.1-0.117c-0.109,0.129-0.092,0.322,0.035,0.431l22.666,19.036
				C147.113,208.451,147.309,208.435,147.417,208.305z"/>
		</g>
		<path opacity="0.05" fill="#FFFFFF" d="M153.812,177.989l-11.72-9.844c-0.129-0.107-0.322-0.091-0.431,0.039l-17.378,20.691
			c-0.109,0.129-0.092,0.322,0.035,0.431l5.087,4.272L153.812,177.989z"/>
	</g>
	<g id="Binder_clip">
		<path opacity="0.1" d="M205.24,159.48c-0.311-0.521-0.95-0.631-1.521-0.74c-0.58-0.101-0.79-0.23-0.92-0.49l-0.87-2.34l-0.16-0.43
			l2.131-0.74l0.029-0.01c0.11-0.07,1.11-1.9,1.051-1.99l-3.33-3.32c0.02-0.01,0.029-0.03,0.029-0.06c0-0.101-0.08-0.301-0.21-0.511
			c-0.16-0.29-0.35-0.479-0.41-0.439l-0.01-0.01c0,0-1.66,0.97-1.7,1c-0.06,0.029-0.09,0.06-0.14,0.27l-0.17,0.1
			c-0.26,0.15-0.44,0.44-0.44,0.73c-0.119-0.11-0.479-0.42-0.729-0.27l-0.12,0.069l-0.09,0.05l-1.15,0.67l-1.09,0.641l-0.14,0.08
			l-0.07,0.05c-0.19,0.11-0.18,0.41-0.14,0.61c0,0.029,0.01,0.05,0.01,0.069c-0.021-0.01-0.03-0.01-0.05-0.02
			c-0.24-0.08-0.511-0.04-0.721,0.09l-0.17,0.1c-0.21-0.06-0.25-0.05-0.3-0.02c-0.04,0.03-1.53,0.899-1.53,0.899l0.011,0.011
			c-0.04,0.02-0.101,0.25-0.101,0.489c0,0.021,0,0.051,0.011,0.07c-0.011,0.01-0.011,0.021,0,0.03c0,0.09,0.02,0.18,0.05,0.25
			c0,0.01,0.01,0.03,0.02,0.04c0.17,0.28,0.55,0.17,0.61,0.14l0.229,0.391l2.341,4c0.06,0.09,0.189,0.109,0.3,0.04l2.18-1.28
			l0.37-0.21l0.26,0.37l1.42,2.02c0.141,0.26,0,0.68-0.149,1.13c-0.19,0.54-0.41,1.16-0.101,1.681c0.33,0.56,0.95,0.909,1.75,0.979
			c0.74,0.05,1.54-0.13,2.2-0.52c0.58-0.341,1.07-0.841,1.39-1.41c0.011-0.01,0.021-0.03,0.021-0.05c0.04-0.07,0.08-0.131,0.11-0.2
			C205.56,160.76,205.56,160.04,205.24,159.48z M195.05,153.29c0.01-0.01,0.03-0.03,0.03-0.04c0.03-0.04,0.04-0.08,0.04-0.12
			l0.06,0.09l-0.09,0.05L195.05,153.29z M199.16,150.76h0.01c0.061,0.04,0.14,0.04,0.21,0l-0.17,0.101l-0.05-0.091V150.76z
			 M204.71,161.46c-0.28,0.51-0.729,0.98-1.24,1.28c-1.1,0.649-2.75,0.66-3.31-0.28c-0.19-0.34-0.03-0.81,0.14-1.3
			c0.181-0.53,0.37-1.08,0.11-1.53l-0.021-0.02l-1.319-2.03l-0.25-0.38l1.93-1.13l0.41-0.24l0.17-0.1l0.16,0.43l0.899,2.35
			c0.07,0.15,0.15,0.271,0.25,0.351c0.03,0.029,0.08,0.06,0.12,0.08c0.19,0.13,0.46,0.199,0.87,0.27c0.521,0.08,1,0.18,1.2,0.51
			C205.13,160.23,205.03,160.87,204.71,161.46z"/>
		<g>
			<g>
				<path fill="#332D2E" d="M203.865,154.768l-8.157,4.78c-0.112,0.065-0.246,0.045-0.3-0.046l-2.572-4.389l2.483-1.455
					l-0.282-0.482c0,0-0.202-0.648,0.098-0.824l0.214-0.125l2.233-1.31l0.214-0.125c0.3-0.177,0.767,0.317,0.767,0.317l0.282,0.482
					l2.554-1.497l2.572,4.39C204.023,154.574,203.977,154.702,203.865,154.768z"/>
				<path fill="#4F4648" d="M197.51,152.046l-0.596,0.349l-0.596,0.35c-0.303,0.177-0.983-0.511-1.113-0.435l1.234-0.723
					l1.234-0.724C197.545,150.939,197.811,151.869,197.51,152.046z"/>
			</g>
			<g>
				<path fill="#D3D3D3" d="M199.664,149.922l-0.706,0.414c-0.348,0.204-0.57,0.681-0.352,1.069l3.456,7.524l0.006,0.011
					c0.264,0.45,0.833,0.553,1.384,0.652c0.515,0.094,1.001,0.182,1.196,0.515c0.557,0.948-0.26,2.379-1.361,3.024
					s-2.748,0.658-3.304-0.289c-0.195-0.334-0.034-0.802,0.137-1.297c0.182-0.528,0.369-1.075,0.106-1.525l-0.013-0.02l-4.87-6.685
					c-0.232-0.379-0.756-0.419-1.105-0.213l-0.705,0.412l0.237,0.406l0.706-0.413c0.152-0.091,0.385-0.085,0.468,0.058l0.014,0.019
					l4.868,6.683c0.146,0.264,0.001,0.683-0.15,1.126c-0.189,0.547-0.402,1.167-0.099,1.687c0.33,0.562,0.954,0.907,1.755,0.972
					c0.735,0.06,1.533-0.128,2.193-0.515c0.659-0.386,1.213-0.991,1.521-1.661c0.334-0.731,0.339-1.444,0.009-2.005
					c-0.305-0.521-0.949-0.638-1.52-0.74c-0.461-0.084-0.896-0.163-1.056-0.419l-3.456-7.523l-0.005-0.01
					c-0.083-0.143,0.025-0.348,0.179-0.437l0.705-0.414L199.664,149.922z"/>
			</g>
			<path fill="#4F4648" d="M201.398,150.095L201.398,150.095L201.398,150.095c0,0-1.982,1.162-2.096,1.229
				c-0.102,0.06-0.226,0.031-0.28-0.063c-0.055-0.093-0.061-0.141,0.029-0.626c0.108-0.585,0.135-0.622,0.217-0.671
				c0.042-0.024,1.527-0.896,1.527-0.896l0.007,0.011l0,0c0.065-0.039,0.252,0.158,0.415,0.439
				C201.383,149.798,201.465,150.057,201.398,150.095z"/>
			<path fill="#4F4648" d="M192.836,155.113L192.836,155.113L192.836,155.113c0.001-0.001,1.982-1.161,2.098-1.229
				c0.1-0.059,0.136-0.182,0.081-0.275c-0.056-0.093-0.095-0.122-0.562-0.281c-0.562-0.19-0.608-0.187-0.691-0.137
				c-0.041,0.023-1.527,0.895-1.527,0.895l0.006,0.011l0,0c-0.066,0.038,0.016,0.296,0.18,0.577S192.771,155.152,192.836,155.113z"
				/>
		</g>
	</g>
	<g id="Binder_clip_1_">
		<path opacity="0.1" d="M197.74,189.82c-0.42-0.44-1.07-0.4-1.65-0.37c-0.59,0.03-0.82-0.04-1-0.26l-1.399-2.091l-0.25-0.369
			l1.859-1.181c0.01-0.01,0.01-0.01,0.021-0.02l0.04-0.03c0.09-0.09,0.63-2.11,0.56-2.18l-4.02-2.45c0.01-0.01,0.01-0.021,0.01-0.04
			c0-0.08-0.13-0.28-0.32-0.48c-0.22-0.229-0.45-0.38-0.51-0.33c0,0-0.35,0.341-0.7,0.671c-0.35,0.34-0.71,0.689-0.729,0.699
			c-0.051,0.051-0.07,0.08-0.07,0.29l-0.14,0.141c-0.21,0.21-0.33,0.529-0.261,0.819c-0.14-0.09-0.56-0.3-0.77-0.1l-0.101,0.1
			l-0.079,0.07l-0.95,0.92l-0.91,0.88l-0.12,0.11l-0.06,0.06c-0.171,0.16-0.07,0.46,0.01,0.65c0.01,0.02,0.01,0.03,0.02,0.05
			c-0.01,0-0.029-0.01-0.04,0c-0.25-0.03-0.51,0.07-0.68,0.24l-0.15,0.14c-0.21-0.01-0.25,0.01-0.3,0.061
			c-0.03,0.029-1.27,1.22-1.27,1.22v0.01c-0.011,0.021-0.021,0.07-0.021,0.15c0,0.12,0.021,0.29,0.07,0.439v0.011
			c0.01,0.04,0.03,0.069,0.04,0.109c0.01,0.021,0.03,0.061,0.05,0.09c0.03,0.021,0.04,0.04,0.061,0.061
			c0.229,0.229,0.569,0.04,0.619-0.01l0.311,0.33l3.22,3.34c0.07,0.069,0.21,0.06,0.3-0.03l1.82-1.75l0.31-0.3l0.341,0.3l1.85,1.64
			c0.2,0.221,0.16,0.66,0.12,1.13c-0.061,0.57-0.12,1.23,0.3,1.66c0.45,0.471,1.13,0.66,1.93,0.53c0.73-0.11,1.46-0.48,2.011-1.01
			c0.479-0.46,0.85-1.07,1.029-1.7c0.011-0.021,0.011-0.04,0.011-0.06c0.02-0.07,0.029-0.141,0.05-0.211
			C198.36,190.98,198.19,190.28,197.74,189.82z M186.39,186.18c0.011-0.02,0.011-0.04,0.011-0.05v-0.01
			c0.02-0.04,0.02-0.07,0.01-0.11l0.08,0.07l-0.07,0.07L186.39,186.18z M189.79,182.75h0.01c0.07,0.03,0.141,0.01,0.2-0.05
			l-0.14,0.14l-0.061-0.08L189.79,182.75z M197.69,191.83c0,0.01,0,0.02-0.011,0.03c-0.149,0.569-0.47,1.13-0.899,1.54
			c-0.91,0.89-2.511,1.279-3.28,0.489c-0.26-0.279-0.22-0.77-0.17-1.29c0.06-0.56,0.11-1.13-0.25-1.51l-0.021-0.01l-1.76-1.67
			l-0.33-0.311l1.61-1.55l0.34-0.33l0.14-0.14l0.261,0.38l1.38,2.021l0.14,0.18c0.07,0.07,0.15,0.12,0.23,0.16
			c0,0.01,0.01,0.01,0.01,0.01c0.16,0.08,0.35,0.11,0.61,0.11c0.13,0,0.27-0.011,0.43-0.021c0.52-0.03,1.01-0.06,1.28,0.22
			C197.8,190.55,197.86,191.2,197.69,191.83z"/>
		<g>
			<g>
				<path fill="#332D2E" d="M195.303,185.552l-6.812,6.558c-0.094,0.09-0.229,0.102-0.302,0.025l-3.528-3.665l2.073-1.995
					l-0.387-0.403c0,0-0.349-0.583-0.099-0.824l0.179-0.172l1.865-1.796l0.179-0.172c0.25-0.241,0.819,0.13,0.819,0.13l0.388,0.402
					l2.132-2.053l3.528,3.665C195.411,185.327,195.396,185.463,195.303,185.552z"/>
				<path fill="#4F4648" d="M188.486,184.394l-0.497,0.479l-0.497,0.479c-0.253,0.243-1.076-0.267-1.185-0.162l1.031-0.991
					l1.03-0.992C188.262,183.31,188.738,184.151,188.486,184.394z"/>
			</g>
			<g>
				<path fill="#D3D3D3" d="M190.084,181.824l-0.59,0.568c-0.29,0.279-0.395,0.795-0.091,1.122l5.121,6.506l0.009,0.009
					c0.361,0.376,0.938,0.343,1.498,0.311c0.521-0.029,1.016-0.058,1.283,0.221c0.763,0.791,0.305,2.373-0.615,3.259
					s-2.518,1.283-3.28,0.492c-0.268-0.278-0.221-0.771-0.17-1.293c0.053-0.556,0.106-1.132-0.254-1.508l-0.017-0.016l-6.3-5.359
					c-0.315-0.313-0.833-0.229-1.125,0.052l-0.589,0.566l0.326,0.339l0.589-0.566c0.127-0.124,0.354-0.173,0.469-0.054l0.018,0.015
					l6.297,5.357c0.204,0.223,0.161,0.663,0.118,1.13c-0.057,0.576-0.118,1.229,0.299,1.663c0.452,0.47,1.14,0.658,1.934,0.534
					c0.729-0.115,1.46-0.483,2.012-1.015c0.551-0.529,0.947-1.247,1.09-1.971c0.153-0.789-0.009-1.483-0.461-1.951
					c-0.418-0.435-1.072-0.397-1.651-0.364c-0.468,0.026-0.909,0.052-1.124-0.16l-5.121-6.505l-0.007-0.009
					c-0.114-0.119-0.057-0.344,0.071-0.466l0.589-0.567L190.084,181.824z"/>
			</g>
			<path fill="#4F4648" d="M191.811,181.587L191.811,181.587L191.811,181.587c0,0-1.655,1.594-1.75,1.685
				c-0.085,0.082-0.212,0.083-0.287,0.004c-0.075-0.077-0.092-0.122-0.118-0.615c-0.031-0.594-0.015-0.637,0.054-0.703
				c0.035-0.033,1.275-1.229,1.275-1.229l0.009,0.009l0,0c0.055-0.053,0.282,0.095,0.507,0.33
				C191.726,181.302,191.866,181.534,191.811,181.587z"/>
			<path fill="#4F4648" d="M184.661,188.47L184.661,188.47L184.661,188.47c0.001-0.001,1.655-1.593,1.752-1.685
				c0.083-0.081,0.089-0.209,0.014-0.287c-0.075-0.077-0.12-0.097-0.611-0.142c-0.592-0.054-0.636-0.039-0.704,0.028
				c-0.034,0.032-1.275,1.228-1.275,1.228l0.008,0.009l0,0c-0.056,0.053,0.085,0.284,0.31,0.52
				C184.379,188.375,184.606,188.523,184.661,188.47z"/>
		</g>
	</g>
	<path fill="#0FC1C1" d="M198.552,92.983c-0.396-0.187-0.597-0.676-0.41-1.073l1.795-3.81c0.226-0.479,0.887-0.643,1.365-0.417
		c0.479,0.225,0.743,0.826,0.518,1.305l-1.184,2.512l-0.19-0.09l1.184-2.512c0.176-0.375-0.043-0.849-0.417-1.024
		c-0.374-0.177-0.908-0.058-1.085,0.316L198.332,92c-0.137,0.292,0.018,0.655,0.31,0.792s0.67,0.026,0.808-0.266l1.626-3.453
		c0.096-0.203,0.01-0.445-0.194-0.541c-0.203-0.096-0.444-0.008-0.54,0.195l-1.071,2.274l-0.191-0.09l1.071-2.274
		c0.146-0.309,0.514-0.441,0.821-0.295c0.309,0.145,0.441,0.513,0.296,0.821l-1.627,3.453
		C199.453,93.013,198.949,93.17,198.552,92.983z"/>
	<path fill="#0FC1C1" d="M204.636,88.817c-0.396-0.187-0.597-0.676-0.41-1.073l1.795-3.81c0.226-0.479,0.887-0.643,1.365-0.417
		c0.479,0.225,0.743,0.826,0.518,1.305l-1.184,2.512l-0.19-0.09l1.184-2.512c0.176-0.375-0.043-0.849-0.417-1.024
		c-0.374-0.177-0.908-0.058-1.085,0.316l-1.795,3.81c-0.137,0.292,0.018,0.655,0.31,0.792s0.67,0.026,0.808-0.266l1.626-3.453
		c0.096-0.203,0.01-0.445-0.194-0.541c-0.203-0.096-0.444-0.008-0.54,0.195l-1.071,2.274l-0.191-0.09l1.071-2.274
		c0.146-0.309,0.514-0.441,0.821-0.295c0.309,0.145,0.441,0.513,0.296,0.821l-1.627,3.453
		C205.537,88.847,205.033,89.004,204.636,88.817z"/>
	<path fill="#0FC1C1" d="M206.689,113.573c-0.396-0.187-0.597-0.676-0.41-1.073l1.795-3.81c0.226-0.479,0.887-0.643,1.365-0.417
		c0.479,0.225,0.743,0.826,0.518,1.305l-1.184,2.512l-0.19-0.09l1.184-2.512c0.176-0.375-0.043-0.849-0.417-1.024
		c-0.374-0.177-0.908-0.058-1.085,0.316l-1.795,3.81c-0.137,0.292,0.018,0.655,0.31,0.792s0.67,0.026,0.808-0.266l1.626-3.453
		c0.096-0.203,0.01-0.445-0.194-0.541c-0.203-0.096-0.444-0.008-0.54,0.195l-1.071,2.274l-0.191-0.09l1.071-2.274
		c0.146-0.309,0.514-0.441,0.821-0.295c0.309,0.145,0.441,0.513,0.296,0.821l-1.627,3.453
		C207.591,113.603,207.087,113.76,206.689,113.573z"/>
	<g id="Coffee_cup">
		<path opacity="0.1" d="M67.62,188.33c-4.88,8.12-13.78,12.33-22.62,11.6c-0.29-0.3-0.56-0.609-0.83-0.91
			c-0.13-0.14-0.26-0.279-0.37-0.42c-0.49-0.54-0.96-1.09-1.43-1.649c-0.19-0.22-0.37-0.44-0.55-0.67
			c-0.181-0.21-0.36-0.431-0.53-0.641l-0.01-0.01c-0.12-0.13-0.221-0.25-0.311-0.38c-0.46-0.55-0.899-1.11-1.33-1.67
			c-0.21-0.26-0.399-0.51-0.59-0.771c-1.069-1.39-2.1-2.81-3.08-4.25c-0.109-0.14-0.2-0.27-0.279-0.409
			c-1.07-1.561-2.101-3.15-3.08-4.771c-0.04-0.07-0.08-0.14-0.12-0.21c-1.08-1.78-2.101-3.59-3.061-5.439
			c-0.04-0.061-0.08-0.12-0.1-0.181c-1.43-2.72-2.74-5.52-3.92-8.37v-0.01c-0.101-0.21-0.19-0.42-0.26-0.63
			c-0.04-0.06-0.07-0.13-0.08-0.19c-0.271-0.64-0.521-1.279-0.761-1.92c-0.06-0.149-0.109-0.29-0.159-0.439
			c-0.08-0.181-0.15-0.37-0.21-0.561c0.51-1.34,1.14-2.649,1.899-3.92c2.05-3.41,4.82-6.13,7.99-8.08
			c0.1-0.069,0.21-0.14,0.31-0.189c7.37-4.391,16.86-4.69,24.74,0.04c1.061,0.64,2.05,1.34,2.97,2.09
			c0.19,0.17,0.391,0.34,0.58,0.52c3.74,3.28,6.261,7.58,7.42,12.221v0.04c0.011,0.01,0.011,0.029,0.021,0.04
			c0,0.02,0,0.029,0.01,0.04c0,0.01,0,0.029,0.01,0.039v0.04c0.011,0.011,0.011,0.03,0.021,0.04c0,0.011,0,0.03,0.01,0.04v0.04
			c0.01,0.011,0.01,0.021,0.021,0.04v0.03c0.01,0.02,0.01,0.03,0.02,0.05v0.03c0.01,0.02,0.01,0.03,0.01,0.05
			c0.011,0.01,0.011,0.021,0.021,0.04v0.03c0.01,0.02,0.01,0.03,0.01,0.04c0.01,0.02,0.01,0.029,0.01,0.04
			c0.01,0.01,0.01,0.029,0.01,0.04c0.011,0.01,0.011,0.029,0.011,0.04c0.01,0.01,0.01,0.029,0.01,0.04
			c0.01,0.01,0.01,0.029,0.01,0.04c0.01,0.01,0.01,0.029,0.01,0.04c0.011,0.01,0.011,0.029,0.011,0.039
			c0.01,0.011,0.01,0.021,0.01,0.04c0.01,0.011,0.01,0.021,0.01,0.04c0.01,0.011,0.01,0.021,0.01,0.03
			c0.011,0.021,0.011,0.03,0.011,0.05c0.01,0.011,0.01,0.021,0.01,0.03c0,0.021,0.01,0.03,0.01,0.05c0,0.01,0.01,0.021,0.01,0.03
			c0,0.02,0.011,0.03,0.011,0.04c0.01,0.02,0.01,0.03,0.01,0.04c0.01,0.02,0.01,0.03,0.01,0.04s0.01,0.03,0.01,0.04
			c0,0.02,0.011,0.03,0.011,0.04s0.01,0.029,0.01,0.04c0,0.01,0.01,0.029,0.01,0.04c0,0.01,0.01,0.02,0.01,0.04
			c0,0.01,0.011,0.02,0.011,0.04c0,0.01,0,0.02,0.01,0.04c0,0.01,0.01,0.02,0.01,0.04c0,0.01,0.01,0.02,0.01,0.039
			c0,0.011,0,0.021,0.01,0.04c0,0.011,0.011,0.021,0.011,0.04c0,0.011,0.01,0.021,0.01,0.03c0,0.021,0.01,0.03,0.01,0.04
			c0,0.021,0,0.03,0.01,0.04c0,0.021,0.011,0.03,0.011,0.04c0,0.02,0,0.03,0.01,0.04c0,0.02,0,0.03,0.01,0.04l0.12,0.51
			C71.78,176.44,70.95,182.78,67.62,188.33z"/>
		<path fill="#F0F0F0" d="M67.17,185.63c-5.28,8.79-15.28,12.99-24.8,11.32c-0.19-0.22-0.37-0.44-0.55-0.67
			c-0.181-0.21-0.36-0.431-0.53-0.641l-0.01-0.01c-0.12-0.13-0.221-0.25-0.311-0.38c-0.46-0.55-0.899-1.11-1.33-1.67
			c-0.21-0.26-0.399-0.51-0.59-0.771c-1.069-1.39-2.1-2.81-3.08-4.25c-0.109-0.14-0.2-0.27-0.279-0.409
			c-1.07-1.561-2.101-3.15-3.08-4.771c-0.04-0.07-0.08-0.14-0.12-0.21c-1.08-1.78-2.101-3.59-3.061-5.439
			c-0.04-0.061-0.08-0.12-0.1-0.181c-1.43-2.72-2.74-5.52-3.92-8.37v-0.01c-0.101-0.21-0.19-0.42-0.26-0.63
			c-0.04-0.06-0.07-0.13-0.08-0.19c-0.271-0.64-0.521-1.279-0.761-1.92c-0.06-0.149-0.109-0.29-0.159-0.439
			c-0.08-0.181-0.15-0.37-0.21-0.561c-0.04-0.08-0.07-0.17-0.101-0.26c0.53-1.49,1.21-2.939,2.05-4.34
			c6.851-11.4,21.65-15.09,33.04-8.24c6.7,4.03,10.73,10.79,11.53,18C71.03,175.65,69.99,180.93,67.17,185.63z"/>
		<path fill="#EBEBEB" d="M66.69,185.34c-0.04,0.061-0.07,0.12-0.11,0.18c-0.33,0.54-0.68,1.061-1.05,1.561
			c-5.5,7.58-14.87,11.01-23.71,9.2c-0.181-0.21-0.36-0.431-0.53-0.641l-0.01-0.01c-0.12-0.13-0.221-0.25-0.311-0.38
			c-0.46-0.55-0.899-1.11-1.33-1.67c-0.21-0.26-0.399-0.51-0.59-0.771c-1.069-1.39-2.1-2.81-3.08-4.25
			c-0.109-0.14-0.2-0.27-0.279-0.409c-1.07-1.561-2.101-3.15-3.08-4.771c-0.04-0.07-0.08-0.14-0.12-0.21
			c-1.08-1.78-2.101-3.59-3.061-5.439c-0.04-0.061-0.08-0.12-0.1-0.181c-1.43-2.72-2.74-5.52-3.92-8.37v-0.01
			c-0.101-0.21-0.19-0.42-0.26-0.63c-0.04-0.06-0.07-0.13-0.08-0.19c-0.271-0.64-0.521-1.279-0.761-1.92
			c-0.06-0.149-0.109-0.29-0.159-0.439c0.54-1.67,1.279-3.311,2.22-4.88c1.93-3.21,4.51-5.79,7.46-7.681
			c0.1-0.069,0.21-0.14,0.31-0.189c7.25-4.49,16.69-4.86,24.511-0.17c1.149,0.689,2.21,1.46,3.199,2.3
			c0.19,0.17,0.391,0.34,0.58,0.52C70.51,163.28,72.55,175.59,66.69,185.34z"/>
		<path opacity="0.1" d="M66.585,184.684c-0.002-0.009-0.004-0.018-0.006-0.027c-0.003-0.008-0.004-0.019-0.008-0.027
			c-0.002-0.011-0.004-0.018-0.006-0.028c-0.002-0.008-0.004-0.018-0.008-0.027c-0.001-0.008-0.004-0.018-0.006-0.027
			c-0.002-0.008-0.005-0.018-0.008-0.027c-0.002-0.01-0.004-0.019-0.007-0.027c-0.001-0.01-0.003-0.018-0.006-0.028
			c-0.003-0.01-0.004-0.018-0.008-0.027c-0.002-0.01-0.004-0.018-0.008-0.027c-0.002-0.009-0.003-0.018-0.005-0.027
			c-0.003-0.009-0.004-0.019-0.008-0.027c-0.001-0.01-0.004-0.019-0.006-0.028c-0.004-0.01-0.004-0.018-0.008-0.027
			c-0.003-0.01-0.004-0.017-0.006-0.027c-0.003-0.01-0.007-0.018-0.008-0.028c-0.002-0.009-0.004-0.019-0.007-0.026
			c-0.001-0.011-0.003-0.02-0.006-0.027c-0.004-0.011-0.005-0.02-0.009-0.028c-0.001-0.01-0.003-0.02-0.007-0.027
			c-0.002-0.009-0.004-0.02-0.005-0.028c-0.004-0.008-0.005-0.019-0.008-0.027c-0.002-0.009-0.004-0.02-0.006-0.027
			c-0.004-0.01-0.007-0.019-0.009-0.027c-0.002-0.01-0.003-0.018-0.005-0.027c-0.003-0.01-0.007-0.019-0.008-0.029
			c-0.003-0.008-0.004-0.018-0.007-0.027c-0.002-0.009-0.005-0.018-0.008-0.027c-0.002-0.009-0.004-0.019-0.007-0.027
			c-0.003-0.008-0.004-0.019-0.007-0.027c-0.003-0.008-0.004-0.019-0.005-0.028c-0.005-0.008-0.006-0.018-0.009-0.026
			c-0.001-0.009-0.005-0.019-0.006-0.028c-0.002-0.009-0.006-0.018-0.008-0.028c-0.002-0.008-0.003-0.016-0.006-0.025
			c-0.004-0.01-0.006-0.019-0.008-0.029c-0.002-0.008-0.004-0.018-0.007-0.026c-0.001-0.011-0.005-0.02-0.008-0.028
			c-0.002-0.008-0.003-0.019-0.005-0.027c-0.004-0.01-0.005-0.019-0.008-0.027c-0.002-0.011-0.005-0.018-0.006-0.028
			c-0.002-0.008-0.006-0.018-0.007-0.027c-0.003-0.01-0.006-0.018-0.008-0.028c-0.003-0.009-0.006-0.017-0.008-0.026
			c-0.001-0.01-0.003-0.018-0.005-0.026c-0.004-0.011-0.006-0.019-0.008-0.029c-0.003-0.008-0.004-0.018-0.006-0.026
			c-0.005-0.01-0.006-0.021-0.008-0.028c-0.003-0.01-0.005-0.02-0.007-0.027c-0.004-0.01-0.005-0.021-0.007-0.027
			c-0.085-0.341-0.3-0.644-0.677-0.869l-4.33-2.603c1.046-2.874,1.175-5.933,0.482-8.791c-0.001-0.01-0.005-0.018-0.007-0.027
			c-0.003-0.01-0.006-0.02-0.007-0.03c-0.002-0.007-0.005-0.017-0.008-0.024c-0.002-0.01-0.004-0.02-0.006-0.03
			c-0.001-0.007-0.004-0.015-0.007-0.022c-0.002-0.011-0.005-0.021-0.007-0.03c-0.003-0.01-0.005-0.02-0.007-0.029
			c-0.004-0.008-0.005-0.018-0.007-0.027c-0.003-0.008-0.005-0.017-0.007-0.027c-0.003-0.008-0.005-0.019-0.007-0.027
			s-0.005-0.018-0.007-0.027c-0.003-0.009-0.006-0.019-0.007-0.029c-0.003-0.007-0.005-0.017-0.009-0.025
			c-0.001-0.01-0.003-0.019-0.006-0.028c-0.001-0.007-0.003-0.016-0.006-0.025c-0.002-0.009-0.005-0.02-0.007-0.029
			c-0.004-0.009-0.006-0.019-0.008-0.028c-0.003-0.008-0.005-0.017-0.007-0.027c-0.001-0.01-0.006-0.018-0.007-0.027
			c-0.002-0.009-0.005-0.019-0.007-0.026c-0.001-0.011-0.004-0.019-0.007-0.029c-0.002-0.009-0.005-0.018-0.006-0.028
			c-0.003-0.008-0.006-0.017-0.009-0.025c-0.001-0.011-0.004-0.019-0.005-0.028c-0.003-0.008-0.005-0.017-0.007-0.026
			c-0.002-0.009-0.006-0.018-0.007-0.028c-0.002-0.009-0.006-0.019-0.008-0.027c-0.003-0.01-0.004-0.021-0.007-0.028
			c-0.002-0.01-0.006-0.019-0.007-0.028c-0.002-0.008-0.004-0.018-0.008-0.025c0-0.011-0.003-0.02-0.006-0.029
			c-0.002-0.009-0.005-0.019-0.008-0.026c-0.001-0.011-0.004-0.021-0.006-0.028c-0.002-0.01-0.005-0.019-0.006-0.027
			c-0.005-0.009-0.006-0.018-0.008-0.026s-0.005-0.019-0.006-0.028c-0.003-0.009-0.007-0.02-0.009-0.028s-0.004-0.02-0.006-0.029
			c-0.002-0.008-0.005-0.016-0.007-0.027c-0.003-0.007-0.004-0.017-0.007-0.027c-0.002-0.008-0.005-0.017-0.007-0.026
			c-0.002-0.009-0.005-0.019-0.008-0.027c-0.003-0.01-0.004-0.02-0.006-0.028c-0.003-0.009-0.005-0.018-0.007-0.027
			c-0.002-0.007-0.005-0.017-0.007-0.026c-0.002-0.008-0.006-0.018-0.007-0.028c-0.002-0.008-0.007-0.019-0.008-0.028
			c-0.002-0.008-0.005-0.019-0.006-0.028c-0.002-0.008-0.006-0.016-0.008-0.027c-0.002-0.009-0.004-0.017-0.006-0.025
			c-0.923-3.843-3.327-7.325-6.979-9.521c-7.229-4.343-16.604-2.006-20.947,5.222c-2.174,3.618-2.674,7.772-1.724,11.566
			c0.002,0.011,0.004,0.02,0.006,0.027c0.003,0.012,0.005,0.021,0.008,0.03c0.002,0.009,0.004,0.018,0.006,0.026
			c0.003,0.008,0.004,0.018,0.008,0.028c0.002,0.007,0.003,0.017,0.006,0.025c0.003,0.01,0.005,0.019,0.008,0.029
			c0.002,0.009,0.004,0.018,0.008,0.028c0.002,0.01,0.003,0.017,0.005,0.026c0.003,0.009,0.005,0.018,0.009,0.028
			c0.001,0.008,0.004,0.018,0.006,0.026c0.003,0.009,0.004,0.02,0.006,0.027c0.003,0.011,0.005,0.02,0.008,0.029
			c0.003,0.009,0.004,0.018,0.007,0.026c0.003,0.01,0.004,0.019,0.007,0.028c0.002,0.008,0.004,0.017,0.008,0.025
			c0.001,0.011,0.004,0.019,0.007,0.028c0.001,0.011,0.003,0.019,0.007,0.029c0.002,0.01,0.004,0.017,0.006,0.026
			c0.003,0.011,0.004,0.018,0.008,0.027c0.002,0.011,0.004,0.019,0.006,0.027c0.003,0.01,0.004,0.021,0.008,0.027
			c0.001,0.011,0.004,0.021,0.007,0.029c0.002,0.009,0.005,0.02,0.006,0.026c0.003,0.01,0.006,0.02,0.008,0.028
			c0.001,0.008,0.003,0.018,0.007,0.024c0.001,0.012,0.004,0.021,0.007,0.029c0.001,0.011,0.003,0.02,0.006,0.028
			c0.003,0.01,0.006,0.02,0.007,0.03c0.003,0.008,0.006,0.018,0.008,0.024c0.003,0.011,0.005,0.02,0.007,0.027
			c0.002,0.01,0.005,0.021,0.007,0.027c0.002,0.011,0.005,0.019,0.006,0.028c0.002,0.01,0.006,0.021,0.008,0.03
			c0.003,0.007,0.004,0.018,0.007,0.026c0.001,0.008,0.003,0.017,0.007,0.023c0.002,0.012,0.005,0.021,0.007,0.03
			c0.002,0.01,0.005,0.019,0.007,0.028c0.002,0.009,0.005,0.019,0.007,0.028c0.003,0.009,0.005,0.019,0.008,0.026
			c0.002,0.009,0.004,0.019,0.006,0.028c0.002,0.008,0.005,0.019,0.007,0.027s0.004,0.019,0.006,0.028
			c0.003,0.008,0.007,0.017,0.008,0.028c0.003,0.007,0.005,0.017,0.007,0.026c0.002,0.008,0.005,0.017,0.007,0.024
			c0.002,0.012,0.004,0.021,0.007,0.029c0.002,0.011,0.005,0.02,0.007,0.028c0.003,0.011,0.005,0.019,0.007,0.028
			c0.002,0.009,0.005,0.019,0.008,0.026c0.002,0.01,0.004,0.019,0.006,0.028c0.943,3.796,3.336,7.231,6.952,9.405
			c6.678,4.012,15.191,2.321,19.873-3.661l0,0c-0.004,0.005-0.009,0.012-0.013,0.016l5.069,3.047
			c0.903,0.543,1.764,0.062,2.307-0.843C66.58,185.738,66.719,185.17,66.585,184.684z"/>
		<circle fill="#F0F0F0" cx="46.532" cy="173.229" r="15.265"/>
		<circle opacity="0.1" cx="46.532" cy="173.228" r="13.437"/>
		<circle fill="#BE9473" cx="46.532" cy="173.229" r="12.709"/>
		<circle fill="#462608" cx="46.669" cy="173.567" r="11.007"/>
		<g>
			<circle fill="#BE9473" cx="50.527" cy="163.366" r="0.89"/>
			<circle fill="#BE9473" cx="51.915" cy="163.683" r="0.631"/>
			<circle fill="#BE9473" cx="52.85" cy="164.338" r="0.632"/>
			<circle fill="#BE9473" cx="53.758" cy="165.631" r="1.167"/>
			<circle fill="#BE9473" cx="43.659" cy="162.783" r="0.89"/>
			<circle fill="#BE9473" cx="42.49" cy="164.496" r="2.07"/>
			<path fill="#BE9473" d="M47.643,162.673c-0.125,0.21-0.52,0.51-0.606,0.152c-0.062-0.237-0.278-0.398-0.153-0.607
				c0.127-0.21,0.399-0.279,0.609-0.152C47.702,162.191,47.77,162.465,47.643,162.673z"/>
			<circle fill="#BE9473" cx="46.5" cy="162.929" r="0.56"/>
			<circle fill="#BE9473" cx="46.722" cy="164.397" r="0.444"/>
			<circle fill="#BE9473" cx="45.412" cy="165.188" r="0.269"/>
			<circle fill="#BE9473" cx="38.175" cy="168.462" r="0.269"/>
			<circle fill="#BE9473" cx="53.795" cy="167.312" r="0.269"/>
			<circle fill="#BE9473" cx="41.055" cy="166.048" r="0.212"/>
			<circle fill="#BE9473" cx="48.722" cy="163.322" r="1.255"/>
			<circle fill="#BE9473" cx="37.302" cy="167.464" r="0.89"/>
			<path fill="#BE9473" d="M36.304,170.248c0.161,0.184,0.328,0.648-0.039,0.627c-0.244-0.015-0.464,0.145-0.627-0.038
				c-0.162-0.184-0.144-0.465,0.038-0.627C35.86,170.047,36.141,170.064,36.304,170.248z"/>
			<circle fill="#BE9473" cx="35.792" cy="170.944" r="0.561"/>
			<circle fill="#BE9473" cx="36.66" cy="169.242" r="1.255"/>
			<circle fill="#BE9473" cx="39.831" cy="164.985" r="1.035"/>
			<circle fill="#BE9473" cx="38.29" cy="166.143" r="1.171"/>
			<circle fill="#BE9473" cx="44.965" cy="163.046" r="1.255"/>
			<circle fill="#BE9473" cx="51.356" cy="183.816" r="0.631"/>
			<circle fill="#BE9473" cx="50.28" cy="184.199" r="0.631"/>
			<circle fill="#BE9473" cx="48.698" cy="184.191" r="1.167"/>
			<circle fill="#BE9473" cx="55.424" cy="169.851" r="0.269"/>
			<circle fill="#BE9473" cx="47.306" cy="183.247" r="0.269"/>
			<circle fill="#BE9473" cx="55.722" cy="173.595" r="0.211"/>
			<circle fill="#BE9473" cx="56.743" cy="169.718" r="0.89"/>
			<path fill="#BE9473" d="M55.055,167.289c-0.244,0.025-0.721-0.107-0.49-0.394c0.154-0.19,0.15-0.462,0.395-0.488
				s0.463,0.15,0.489,0.393C55.474,167.044,55.297,167.263,55.055,167.289z"/>
			<circle fill="#BE9473" cx="54.783" cy="166.469" r="0.56"/>
			<circle fill="#BE9473" cx="55.667" cy="168.165" r="1.256"/>
			<circle fill="#BE9473" cx="57.248" cy="171.288" r="1.171"/>
		</g>
		<path fill="#F0F0F0" d="M65.904,184.869c-0.543,0.905-1.403,1.386-2.307,0.843l-5.068-3.045c0.39-0.497,0.752-1.021,1.087-1.576
			c0.333-0.555,0.626-1.122,0.882-1.699l5.067,3.045C66.47,182.979,66.447,183.966,65.904,184.869z"/>
		<path opacity="0.1" d="M60.388,181.555c-0.334,0.556-0.695,1.08-1.085,1.576l-0.773-0.464c0.39-0.497,0.752-1.021,1.087-1.576
			c0.333-0.555,0.626-1.122,0.882-1.699l0.773,0.464C61.015,180.433,60.721,180.999,60.388,181.555z"/>
	</g>
	<rect x="82.667" y="54" fill="#0FC1C1" width="40.667" height="36.333"/>
	<g>
		<rect x="125.667" y="54.125" fill="#B1C5CD" width="45.374" height="0.458"/>
		<rect x="125.667" y="57.367" fill="#B1C5CD" width="39.624" height="0.458"/>
		<rect x="125.667" y="60.61" fill="#B1C5CD" width="45.374" height="0.458"/>
		<rect x="125.667" y="63.852" fill="#B1C5CD" width="31.041" height="0.459"/>
		<rect x="125.667" y="67.095" fill="#B1C5CD" width="45.374" height="0.459"/>
		<rect x="125.667" y="70.337" fill="#B1C5CD" width="45.374" height="0.458"/>
		<rect x="125.667" y="73.58" fill="#B1C5CD" width="42.415" height="0.458"/>
		<rect x="125.667" y="76.822" fill="#B1C5CD" width="45.374" height="0.458"/>
		<rect x="125.667" y="80.064" fill="#B1C5CD" width="40.541" height="0.459"/>
		<rect x="125.667" y="83.307" fill="#B1C5CD" width="45.374" height="0.458"/>
		<rect x="125.667" y="86.549" fill="#B1C5CD" width="45.374" height="0.458"/>
		<rect x="125.667" y="89.792" fill="#B1C5CD" width="35.291" height="0.458"/>
	</g>
	<g>
		<rect x="91.167" y="94.125" fill="#B1C5CD" width="80.041" height="0.458"/>
		<rect x="91.167" y="97.367" fill="#B1C5CD" width="69.897" height="0.458"/>
		<rect x="91.167" y="100.61" fill="#B1C5CD" width="80.041" height="0.458"/>
		<rect x="91.167" y="103.852" fill="#B1C5CD" width="54.757" height="0.459"/>
		<rect x="91.167" y="107.095" fill="#B1C5CD" width="80.041" height="0.459"/>
		<rect x="91.167" y="110.337" fill="#B1C5CD" width="80.041" height="0.458"/>
		<rect x="91.167" y="113.58" fill="#B1C5CD" width="74.821" height="0.458"/>
		<rect x="91.167" y="116.822" fill="#B1C5CD" width="80.041" height="0.458"/>
		<rect x="91.167" y="120.064" fill="#B1C5CD" width="71.516" height="0.459"/>
	</g>
	<g>
		<path fill="#B1C5CD" d="M88,98.875h-5.438v-5.438H88V98.875z M83.562,97.875H87v-3.438h-3.438V97.875z"/>
	</g>
	<g>
		<path fill="#B1C5CD" d="M88,105.812h-5.438v-5.438H88V105.812z M83.562,104.812H87v-3.438h-3.438V104.812z"/>
	</g>
	<g>
		<path fill="#B1C5CD" d="M88,112.75h-5.438v-5.438H88V112.75z M83.562,111.75H87v-3.438h-3.438V111.75z"/>
	</g>
	<g>
		<path fill="#B1C5CD" d="M88,119.583h-5.438v-5.438H88V119.583z M83.562,118.583H87v-3.438h-3.438V118.583z"/>
	</g>
	<rect x="83.75" y="126.5" fill="#B1C5CD" width="25" height="25"/>
	<rect x="114.75" y="126.5" fill="#B1C5CD" width="25" height="25"/>
	<rect x="146" y="126.5" fill="#B1C5CD" width="25" height="25"/>
	<g>
		<path fill="#F5F5F5" d="M98.062,68.087c0,0-0.233-0.594-1.033-0.439c-0.801,0.155-0.581,0.827-0.581,1.252
			c0,0.427-0.079,1.654,0.491,2.158c0.568,0.504,1.137,0.22,1.137,0.556c0,0.335,0.012,2.325,0.012,2.325s0,0.671,0.892,1.188
			c0.892,0.517,2.545,1.408,2.545,1.408l2.055,0.491l2.351-1.007l0.568-0.129l2.016-1.653c0,0,0.311-0.259,0.258-0.827
			c0,0-0.038-1.641,0-1.719c0.039-0.077,1.15-0.219,1.461-1.136c0.31-0.917,0.22-1.964,0.09-2.636
			c-0.129-0.671-1.099-0.194-1.24-0.155c-0.143,0.039-0.065-3.747-0.065-3.747s-0.672-0.375-0.813-0.414s-6.097-1.731-6.239-1.963
			s-3.397-1.279-3.397-1.279l-0.672,1.02l-0.581,4.031l-0.259,1.485L98.062,68.087z"/>
		<path fill="#F5F5F5" d="M98.965,74.985l0.039,5c0,0,2.268,1.724,2.617,2.092c0.348,0.369,1.568,1.279,1.996,1.221
			c0.426-0.058,1.568-1.143,2.092-1.453s1.958-1.667,2.151-1.899v-5.465L98.965,74.985z"/>
		<path fill="#D3D3D3" d="M102.841,70.735c0,0.157-0.127,0.284-0.284,0.284l0,0c-0.156,0-0.284-0.127-0.284-0.284v-3.217
			c0-0.157,0.128-0.284,0.284-0.284l0,0c0.157,0,0.284,0.127,0.284,0.284V70.735z"/>
		<path fill="#D3D3D3" d="M104.481,70.735c0,0.157-0.126,0.284-0.284,0.284l0,0c-0.157,0-0.283-0.127-0.283-0.284v-3.217
			c0-0.157,0.126-0.284,0.283-0.284l0,0c0.158,0,0.284,0.127,0.284,0.284V70.735z"/>
		<ellipse fill="#FFFFFF" cx="103.442" cy="71.788" rx="1.899" ry="1.182"/>
		<path fill="#D3D3D3" d="M101.504,71.778c0,0,0.106,1.163,1.871,1.183c0,0-1.716,0.3-2.084-1.134L101.504,71.778z"/>
		<path fill="#D3D3D3" d="M105.322,71.778c0,0-0.106,1.163-1.871,1.183c0,0,1.716,0.3,2.084-1.134L105.322,71.778z"/>
		<path fill="#D3D3D3" d="M98.979,75.128l2.303,0.972c0,0,2.181,0.737,3.304,0.388c1.124-0.349,3.275-1.705,3.275-1.705
			s-0.058,0.339-0.329,0.61c-0.271,0.271-1.435,1.085-1.899,1.511c-0.465,0.427-1.473,1.221-2.48,1.046
			c-1.008-0.174-2.849-1.646-3.353-2.016C99.295,75.567,99.011,75.405,98.979,75.128z"/>
		<path fill="#2F2F2F" d="M98.307,61.76l0.901-0.843c0,0,0.136-0.175,0.349-0.039c0.214,0.136,6.812,3.818,6.812,3.818
			s0.668,0.208,1.245-0.005c0.576-0.213,1.08-0.78,1.08-0.78v2.984v1.637c0,0,0.514-0.901,0.998-0.872
			c0.242,0.01,0.678,0.397,0.717,0.572c0-0.397,0-6.463,0-6.463s-0.009-1.343-0.965-1.809c-0.892-0.491-7.261-4.199-7.261-4.199
			s-0.698-0.283-1.499,0.246c-0.801,0.53-2.222,2.48-2.222,2.48s-1.976,0.4-1.976,1.977c0,0.827,0,7.622,0,7.622s0.852-0.93,1.575,0
			c0-0.827,0-2.791,0-2.791l0.801-0.801v-1.963C98.862,62.532,98.759,61.996,98.307,61.76z"/>
		<path fill="#2F2F2F" d="M103.457,71.866l0.005-1.173c0,0-0.345-0.121-0.533-0.247c-0.189-0.125-0.412-0.474-0.708-0.387
			c-0.295,0.087-1.681,0.896-1.681,0.896v1.274c0,0,0.198-0.368,0.596-0.368S103.457,71.866,103.457,71.866z"/>
		<path fill="#2F2F2F" d="M103.438,71.866l-0.004-1.173c0,0,0.343-0.121,0.532-0.247c0.188-0.125,0.412-0.474,0.707-0.387
			c0.297,0.087,1.682,0.896,1.682,0.896v1.274c0,0-0.199-0.368-0.597-0.368S103.438,71.866,103.438,71.866z"/>
		<path fill="#2F2F2F" d="M102.512,73.329h0.969v4.39c0,0-0.193,0-0.455-0.185c0,0-2.374-1.454-2.46-1.541v-1.812l1.144,0.475
			c0,0-0.088,0.756,0.048,0.979c0.136,0.223,1.075,0.417,1.075-0.117c0-0.533,0-1.337,0-1.337l-0.281-0.513L102.512,73.329z"/>
		<path fill="#2F2F2F" d="M104.411,73.329h-0.969v4.39c0,0,0.194,0,0.455-0.185c0,0,2.374-1.454,2.461-1.541v-1.812l-1.143,0.475
			c0,0,0.087,0.756-0.049,0.979c-0.135,0.223-1.075,0.417-1.075-0.117c0-0.533,0-1.337,0-1.337l0.28-0.513L104.411,73.329z"/>
		<path fill="#D3D3D3" d="M98.087,69.095c0,0-0.31-0.375-0.685-0.22c-0.374,0.155-0.311,0.659-0.271,0.891
			c0,0,0.169,0.401,0.169,0.517c0,0.117,0.181,0.026,0.194-0.155c0.013-0.181,0.077-0.556,0.284-0.556
			c0.206,0,0.321,0.479,0.438,0.659c0.116,0.181-0.22,1.279,0.298,1.86c0.516,0.581,0.58,1.06,0.619,1.331
			c0.039,0.271,0.271,0.103,0.233-0.31c-0.039-0.414,0.245-2.093,0.116-2.248c-0.13-0.155-1.061-0.077-1.15-0.762
			C98.242,69.417,98.204,69.224,98.087,69.095z"/>
		<path fill="#D3D3D3" d="M108.897,69.095c0,0,0.311-0.375,0.685-0.22c0.376,0.155,0.311,0.659,0.271,0.891
			c0,0-0.168,0.401-0.168,0.517c0,0.117-0.181,0.026-0.193-0.155c-0.013-0.181-0.078-0.556-0.284-0.556
			c-0.207,0-0.323,0.479-0.439,0.659s0.219,1.279-0.297,1.86c-0.517,0.581-0.582,1.06-0.621,1.331
			c-0.038,0.271-0.271,0.103-0.232-0.31c0.039-0.414-0.245-2.093-0.115-2.248c0.129-0.155,1.06-0.077,1.149-0.762
			C108.742,69.417,108.781,69.224,108.897,69.095z"/>
		<path fill="#2F2F2F" d="M106.758,66.013c0,0.31-0.255,0.562-0.565,0.562c-0.31,0-0.561-0.252-0.561-0.562
			c0-0.31,0.251-0.562,0.561-0.562c0.074,0,0.146,0.016,0.212,0.041c-0.035,0.041-0.057,0.093-0.057,0.152
			c0,0.133,0.108,0.241,0.238,0.241c0.054,0,0.1-0.015,0.14-0.043C106.747,65.895,106.758,65.954,106.758,66.013z"/>
		<path fill="#2F2F2F" d="M101.238,66.013c0,0.31-0.251,0.562-0.562,0.562c-0.31,0-0.562-0.252-0.562-0.562
			c0-0.31,0.252-0.562,0.562-0.562c0.094,0,0.181,0.022,0.258,0.065c-0.024,0.037-0.037,0.081-0.037,0.127
			c0,0.133,0.108,0.241,0.238,0.241c0.028,0,0.056-0.006,0.081-0.015C101.232,65.917,101.238,65.963,101.238,66.013z"/>
		<path fill="#D3D3D3" d="M100.658,76.458c0,0,1.938,2.416,2.648,2.635c0.711,0.22,3.153-2.816,3.269-2.997
			c0.116-0.181-2.287,1.86-2.778,1.757c-0.49-0.104-1.2-0.31-1.576-0.478c-0.373-0.167,0.002,0.026-0.335-0.284
			C101.55,76.781,100.658,76.458,100.658,76.458z"/>
		<path fill="#2F2F2F" d="M99.004,79.985c0,0-7.111,2.325-7.887,2.616c-0.774,0.291-3.759,1.008-3.914,3.236v4.496h33.233v-3.934
			c0,0-0.329-2.752-2.229-3.469c-1.899-0.717-10.348-2.984-10.348-2.984s-3.449,3.139-4.243,3.353
			C102.822,83.512,100.826,80.896,99.004,79.985z"/>
	</g>
</g>
<g id="Layer_4">
</g>
<g id="Layer_5">
</g>
<g id="Layer_6">
</g>
<g id="Guide" display="none">
</g>
</svg>
