<?xml version="1.0" encoding="utf-8"?>
<!-- Generator: Adobe Illustrator 16.0.0, SVG Export Plug-In . SVG Version: 6.00 Build 0)  -->
<!DOCTYPE svg PUBLIC "-//W3C//DTD SVG 1.1//EN" "http://www.w3.org/Graphics/SVG/1.1/DTD/svg11.dtd">
<svg version="1.1" xmlns="http://www.w3.org/2000/svg" xmlns:xlink="http://www.w3.org/1999/xlink" x="0px" y="0px" width="250px"
	 height="250px" viewBox="0 0 250 250" enable-background="new 0 0 250 250" xml:space="preserve">
<g id="Create_Campaign_Page">
</g>
<g id="Create_Profile">
</g>
<g id="Layer_4">
	<path fill="#F5F5F5" d="M229.58,128.25c0,9.22-1.17,18.16-3.37,26.69c-0.06,0.22-0.12,0.449-0.18,0.68
		c-0.11,0.42-0.221,0.84-0.351,1.26c-0.04,0.17-0.09,0.351-0.14,0.53c-0.521,1.82-1.08,3.62-1.7,5.399
		c-0.01,0.04-0.02,0.091-0.04,0.131c-0.569,1.659-1.18,3.3-1.84,4.92c-0.01,0.05-0.03,0.09-0.05,0.13
		c-0.54,1.37-1.12,2.71-1.72,4.05c-0.061,0.14-0.12,0.27-0.19,0.41c-0.71,1.55-1.45,3.09-2.24,4.6
		c-0.069,0.141-0.14,0.29-0.22,0.431c-0.38,0.739-0.78,1.479-1.19,2.21c-0.01,0.02-0.02,0.029-0.029,0.05
		c-0.09,0.18-0.19,0.359-0.301,0.54c-0.13,0.239-0.26,0.479-0.399,0.72c-0.12,0.2-0.23,0.4-0.351,0.6
		c-0.439,0.761-0.89,1.521-1.359,2.271c-0.43,0.71-0.87,1.41-1.32,2.11c-1.229,1.899-2.52,3.76-3.85,5.569
		c-0.62,0.83-1.25,1.66-1.9,2.47c-0.71,0.921-1.45,1.82-2.2,2.711c-1.22,1.46-2.489,2.89-3.79,4.279c-1.279,1.37-2.6,2.71-3.96,4.01
		c-1.09,1.051-2.21,2.08-3.35,3.091c-0.21,0.189-0.43,0.38-0.65,0.56c-3.21,2.8-6.6,5.4-10.13,7.8
		c-15.189,10.29-33.17,16.771-52.58,18.04c-2.34,0.16-4.71,0.24-7.1,0.24c-28.95,0-55.21-11.56-74.39-30.32
		c-1.5-1.449-2.95-2.949-4.36-4.5c-0.29-0.3-0.561-0.609-0.83-0.91c-0.07-0.069-0.14-0.149-0.2-0.22c-0.06-0.069-0.12-0.13-0.17-0.2
		c-0.49-0.54-0.96-1.09-1.43-1.649c-0.19-0.22-0.37-0.44-0.55-0.67c-0.061-0.07-0.101-0.12-0.15-0.19c-0.01,0-0.01-0.01-0.01-0.01
		c-0.13-0.15-0.25-0.3-0.37-0.44l-0.01-0.01c-0.021-0.02-0.03-0.04-0.061-0.06v-0.011c-0.1-0.1-0.18-0.199-0.25-0.31
		c-0.46-0.55-0.899-1.11-1.33-1.67c-0.21-0.26-0.399-0.51-0.59-0.771c-1.07-1.39-2.1-2.81-3.08-4.25
		c-0.109-0.14-0.2-0.27-0.28-0.409c-1.069-1.561-2.1-3.15-3.079-4.771c-0.04-0.07-0.08-0.14-0.12-0.21
		c-0.94-1.56-1.84-3.14-2.69-4.75c-0.13-0.229-0.25-0.46-0.37-0.689c-0.04-0.061-0.08-0.12-0.1-0.181c-0.66-1.26-1.3-2.54-1.91-3.84
		c-0.19-0.39-0.37-0.79-0.55-1.19c-0.51-1.1-1-2.22-1.46-3.34v-0.01c-0.101-0.21-0.19-0.42-0.26-0.63
		c-0.04-0.06-0.07-0.13-0.08-0.19c-0.271-0.64-0.521-1.279-0.761-1.92c-0.06-0.149-0.109-0.29-0.159-0.439
		c-0.08-0.181-0.15-0.37-0.211-0.561c-0.039-0.08-0.069-0.17-0.1-0.26c-1.01-2.72-1.91-5.49-2.689-8.3
		c-2.54-9.11-3.9-18.71-3.9-28.62c0-31.37,13.56-59.58,35.15-79.07c0.17-0.15,0.34-0.31,0.52-0.46c1.28-1.15,2.59-2.26,3.93-3.33
		c4.931-3.99,10.23-7.55,15.83-10.61c0.48-0.27,0.971-0.53,1.46-0.79c4.7-2.48,9.62-4.62,14.71-6.38c2.99-1.04,6.04-1.95,9.15-2.72
		c4.55-1.13,9.22-1.97,13.99-2.49c0.01,0,0.01,0,0.01,0c0.2-0.02,0.41-0.05,0.62-0.06c0.14-0.02,0.29-0.04,0.439-0.05
		c0.9-0.09,1.811-0.17,2.721-0.24c1.47-0.11,2.949-0.19,4.439-0.24c0.07,0,0.141-0.01,0.22-0.01c1.101-0.03,2.2-0.05,3.311-0.05
		h0.33c0.09,0,0.17,0,0.26,0.01h0.01c2.21,0,4.41,0.08,6.59,0.23c0.101,0,0.2,0.01,0.29,0.02c1.11,0.07,2.2,0.17,3.301,0.28
		c0.27,0.03,0.54,0.05,0.81,0.08c0.09,0.01,0.19,0.02,0.29,0.04c3.01,0.33,5.99,0.79,8.92,1.38c0.24,0.04,0.48,0.09,0.72,0.15
		c0,0,0,0,0.011,0c1.409,0.28,2.81,0.6,4.199,0.95c3.11,0.77,6.171,1.68,9.171,2.72c4.59,1.59,9.05,3.49,13.329,5.67
		c0.33,0.16,0.66,0.33,0.98,0.5c1.34,0.7,2.65,1.42,3.95,2.17c0.359,0.21,0.729,0.42,1.09,0.64c1.05,0.62,2.09,1.26,3.12,1.93
		c0.49,0.31,0.979,0.63,1.47,0.96c1.2,0.79,2.38,1.62,3.55,2.46c1.59,1.14,3.15,2.33,4.67,3.58c0.181,0.13,0.351,0.27,0.53,0.43
		C214.43,65.47,229.58,95.09,229.58,128.25z"/>
</g>
<g id="Layer_5">
	<path opacity="0.1" d="M200.73,205.54c0.069-0.03,0.149-0.06,0.22-0.09l-0.22,0.1V205.54z"/>
	<path opacity="0.1" d="M208.74,191.55c-0.62,0.83-1.25,1.66-1.9,2.47c-0.71,0.921-1.45,1.82-2.2,2.711
		c-1.22,1.46-2.489,2.89-3.79,4.279c-1.279,1.37-2.6,2.71-3.96,4.01c-1.09,1.051-2.21,2.08-3.35,3.091
		c-0.21,0.189-0.43,0.38-0.65,0.56c-3.21,2.8-6.6,5.4-10.13,7.8c-15.189,10.29-33.17,16.771-52.58,18.04L48.69,204.43
		c-1.5-1.449-2.95-2.949-4.36-4.5c-0.29-0.3-0.561-0.609-0.83-0.91c-0.07-0.069-0.14-0.149-0.2-0.22c-0.06-0.069-0.12-0.13-0.17-0.2
		c-0.49-0.54-0.96-1.09-1.43-1.649c-0.19-0.22-0.37-0.44-0.55-0.67c-0.061-0.07-0.101-0.12-0.15-0.19c-0.01,0-0.01-0.01-0.01-0.01
		c-0.13-0.15-0.25-0.3-0.37-0.44l-0.01-0.01c-0.021-0.02-0.03-0.04-0.061-0.06v-0.011c-0.1-0.1-0.18-0.199-0.25-0.31
		c-0.46-0.55-0.899-1.11-1.33-1.67c-0.21-0.26-0.399-0.51-0.59-0.771c-1.07-1.39-2.1-2.81-3.08-4.25
		c-0.109-0.14-0.2-0.27-0.28-0.409c-1.069-1.561-2.1-3.15-3.079-4.771c-0.04-0.07-0.08-0.14-0.12-0.21
		c-0.94-1.56-1.84-3.14-2.69-4.75c-0.13-0.229-0.25-0.46-0.37-0.689c-0.04-0.061-0.08-0.12-0.1-0.181c-0.66-1.26-1.3-2.54-1.91-3.84
		l0.22-0.82l0.011-0.029l2.229-8.48v-0.01l5.29-20.12l23.9,6.49h0.02l2.23,0.609l0.26,0.07l0.71,0.19l0.24,0.069l23.189,6.29
		l0.34,0.101l0.53,0.14l0.34,0.09l24.55,6.67l0.2,0.05l0.771,0.211l0.239,0.06l32.181,8.74l13.3,3.609l4.14,1.13l22.67,6.15
		l5.5,1.49l1.19,0.33l0.7,0.18l4.229,1.15l2.36,0.649l9.26,2.511L208.74,191.55z"/>
	<g>
		<polygon fill="#08847E" points="114.421,207.204 119.844,209.312 125.567,203.891 129.257,198.543 127.826,195.305 
			120.897,196.208 		"/>
	</g>
	<g>
		<path fill="#08847E" d="M26.562,172.713l4.771,1.756l9.964-5.598l6.401,0.564c0,0,1.995,1.018,2.749,1.695
			c0.753,0.678,2.673-0.678,2.673-0.678s-2.184-3.125-2.522-3.314c-0.339-0.188-7.795-2.297-7.944-2.372
			c-0.151-0.074-5.348-0.489-6.138-1.279c-0.791-0.791-2.788-0.791-2.788-0.791l-4.668,1.731L26.562,172.713z"/>
	</g>
	<g>
		<path fill="#0FC1C1" d="M216.69,166.24c0,0.069,0,0.189-0.011,0.34c-0.04,1.57-0.189,7.08-0.359,13.16
			c-0.09,0.18-0.19,0.359-0.301,0.54c-0.13,0.239-0.26,0.479-0.399,0.72c-0.12,0.2-0.23,0.4-0.351,0.6
			c-0.439,0.761-0.89,1.521-1.359,2.271c-0.43,0.71-0.87,1.41-1.32,2.11c-1.229,1.899-2.52,3.76-3.85,5.569
			c-0.62,0.83-1.25,1.66-1.9,2.47c-0.71,0.921-1.45,1.82-2.2,2.711c-1.22,1.46-2.489,2.89-3.79,4.279
			c-1.279,1.37-2.6,2.71-3.96,4.01c-1.09,1.051-2.21,2.08-3.35,3.091c-0.21,0.189-0.43,0.38-0.65,0.56
			c-0.77,0.311-1.56,0.63-2.34,0.94c-0.51,0.21-1.28,0.39-1.8,0.609c-9.76,3.9-20.05,7.67-25.57,9.67l-0.09,0.04
			c-0.57,0.2-1.1,0.391-1.56,0.561c-1.561,0.56-2.45,0.87-2.45,0.87l-0.53-0.221l-9.31-3.8l-0.021-0.01l-1.649-0.68h-0.021
			l-0.75-0.311l-0.1-0.22v-0.01l-0.061-0.12l-6.109-12.7c-0.011-0.01-0.011-0.021-0.021-0.021l-0.029-0.079l-0.181-0.07l-11.18-4.36
			h-0.01l-1.771-0.7l-2.22-0.869l-10.29,10.17l-0.05,0.05l-2.761-0.92l-1.21-0.4l-24.55-8.149l-1.21-0.4l-23.189-7.71l-1.21-0.4
			l-0.83-0.279l-0.221-0.07c0,0-3.72-7.33-5.35-13.14c0-0.011-0.01-0.03-0.01-0.04c-0.01-0.021-0.021-0.04-0.021-0.061
			c-0.01-0.01-0.01-0.01-0.01-0.02c-0.01-0.04-0.03-0.07-0.05-0.11v-0.01c-0.73-1.601-1.36-2.99-1.811-3.91
			c-0.06-0.11-0.119-0.22-0.159-0.31c-0.011-0.021-0.021-0.03-0.03-0.051c0-0.02-0.01-0.029-0.021-0.04
			c-0.06-0.12-0.1-0.21-0.159-0.31c-0.091-0.17-0.16-0.3-0.211-0.37c-0.13-0.19-0.47-0.43-0.96-0.7c-0.04-0.02-0.079-0.05-0.13-0.08
			c-0.05-0.02-0.1-0.05-0.149-0.08c-0.03-0.01-0.05-0.029-0.08-0.05c-2.99-1.59-9.92-4.17-11.931-4.84
			c-2.5-0.83-3.619-0.76-4.979,0.521c-1.3,1.229-5.99,6.949-6.39,7.439v0.01c-0.021,0.021-0.03,0.03-0.03,0.03l-0.15-0.07
			l-0.29-0.13l-0.029-0.02l-0.03-0.01h-0.01l-0.051-0.04L26.2,172.52c-0.51-1.1-1-2.22-1.46-3.34v-0.01
			c-0.101-0.21-0.19-0.42-0.26-0.63c-0.04-0.06-0.07-0.13-0.08-0.19c-0.271-0.64-0.521-1.279-0.761-1.92
			c-0.06-0.149-0.109-0.29-0.159-0.439c-0.08-0.181-0.15-0.37-0.211-0.561c-0.039-0.08-0.069-0.17-0.1-0.26
			c-1.01-2.72-1.91-5.49-2.689-8.3l-0.4-20.16v-7.979l6.6-17.101l1.811-4.67c0,0,0-0.01,0.01-0.03c0,0,0,0,0.01-0.01
			c0,0,0-0.01,0.01-0.02c0-0.02,0.011-0.03,0.021-0.06c0.08-0.18,0.26-0.54,0.59-1c0.061-0.08,0.13-0.16,0.2-0.26
			c0.07-0.09,0.14-0.18,0.229-0.28c0.091-0.09,0.181-0.19,0.28-0.29c0.08-0.1,0.18-0.19,0.271-0.27c0.09-0.09,0.189-0.18,0.3-0.27
			c0.06-0.05,0.12-0.11,0.189-0.16c0.12-0.09,0.24-0.18,0.36-0.27c0.55-0.4,1.21-0.79,2.01-1.12c0.32-0.15,0.65-0.27,1.021-0.39
			c4.439-1.43,54.68-20.27,54.68-20.27s2.55-0.97,7.45,1.28c4.899,2.27,94.36,34.65,94.36,34.65s1.039,0.35,2.449,1.32
			c1.021,0.69,2.23,1.7,3.37,3.14l4.561,6.22l0.069,0.11c0,0,0.011,0.01,0.04,0.029c0.24,0.26,1.681,1.87,0.761,3.08
			c-0.091,0.11-0.19,0.21-0.311,0.311c0.87,1.92,13.45,23.93,14.45,25.67c0.04,0.069,0.06,0.109,0.06,0.109
			S217.45,161.12,216.69,166.24z"/>
	</g>
	<path opacity="0.7" fill="#002320" d="M158.55,220.62v0.52l-9.31-3.8l-0.021-0.01l-1.649-0.68h-0.021l-0.75-0.311l-0.1-0.22v-0.01
		l-0.061-0.12l-6.109-12.7c-0.011-0.01-0.011-0.021-0.021-0.021l-0.029-0.079l-0.181-0.07l-11.18-4.36h-0.01l-1.771-0.7l-2.22-0.869
		l-10.29,10.17l-0.05,0.05l-2.761-0.92l-1.21-0.4l-24.55-8.149l-1.21-0.4l-23.189-7.71l-1.21-0.4l-0.83-0.279l-0.221-0.07
		c0,0-3.72-7.33-5.35-13.14c0-0.011-0.01-0.03-0.01-0.04c-0.01-0.021-0.021-0.04-0.021-0.061c-0.01-0.01-0.01-0.01-0.01-0.02
		c-0.01-0.04-0.03-0.07-0.05-0.11v-0.01c-0.73-1.601-1.36-2.99-1.811-3.91c-0.06-0.11-0.109-0.21-0.149-0.3
		c-0.01,0-0.01-0.01-0.01-0.01c-0.011-0.021-0.021-0.03-0.03-0.051c0-0.02-0.01-0.029-0.021-0.04c-0.06-0.12-0.1-0.21-0.159-0.31
		c-0.091-0.17-0.16-0.3-0.211-0.37c-0.13-0.19-0.47-0.43-0.96-0.7c-0.05-0.029-0.109-0.06-0.17-0.09
		c-0.04-0.03-0.069-0.05-0.109-0.07c-0.03-0.01-0.05-0.029-0.08-0.05c-2.99-1.59-9.92-4.17-11.931-4.84
		c-2.5-0.83-3.619-0.76-4.979,0.521c-1.3,1.229-5.99,6.949-6.39,7.439v0.01c-0.021,0.021-0.03,0.03-0.03,0.03l-0.15-0.07l-0.29-0.13
		l-0.029-0.02l-0.03-0.01h-0.01l-0.051-0.04L26.2,172.52c-0.51-1.1-1-2.22-1.46-3.34v-0.01c-0.101-0.21-0.19-0.42-0.26-0.63
		c-0.04-0.06-0.07-0.13-0.08-0.19c-0.271-0.64-0.521-1.279-0.761-1.92c-0.06-0.149-0.109-0.29-0.159-0.439
		c-0.08-0.181-0.15-0.37-0.211-0.561c-0.039-0.08-0.069-0.17-0.1-0.26c-1.01-2.72-1.91-5.49-2.689-8.3l-0.4-20.16v-7.979
		l6.229-16.311l0.37-0.79c0.94,0.34,2.03,0.73,3.28,1.18l2.68,0.96l28.011,10.02l1.21,0.43l23.189,8.31l1.21,0.43l24.55,8.79
		l1.21,0.43L145,153.99l0.02,0.04l12.48,23.609l0.81,1.54l0.091,0.16l0.029,7.49L158.55,220.62z"/>
	<g>
		<path fill="#2F2F2F" d="M149.214,221.747c-2.748,5.506-8.169,9.254-14.411,9.254c-9.014,0-16.314-7.809-16.314-17.435
			c0-6.772,3.614-12.652,8.904-15.533l0.434,0.182c0,0,12.255,4.072,12.953,5.325c0.699,1.254,6.121,12.544,6.121,12.544
			s-1.397,0.205-2.555,0.506c-1.614,1.205-0.107,3.266-0.107,3.266L149.214,221.747z"/>
	</g>
	<g>
		<path fill="#2F2F2F" d="M60.03,188.69c-0.07,0.159-0.141,0.31-0.21,0.46c-2.65,5.779-8.2,9.77-14.63,9.77
			c-0.641,0-1.271-0.04-1.891-0.12c-0.06-0.069-0.12-0.13-0.17-0.2c-0.49-0.54-0.96-1.09-1.43-1.649c-0.19-0.22-0.37-0.44-0.55-0.67
			c-0.061-0.07-0.101-0.12-0.15-0.19c-0.01,0-0.01-0.01-0.01-0.01c-0.13-0.15-0.25-0.3-0.37-0.44l-0.01-0.01
			c-0.021-0.02-0.03-0.04-0.061-0.06v-0.011c-0.1-0.1-0.18-0.199-0.25-0.31c-0.46-0.55-0.899-1.11-1.33-1.67
			c-0.21-0.26-0.399-0.51-0.59-0.771c-1.07-1.39-2.1-2.81-3.08-4.25c-0.109-0.14-0.2-0.27-0.28-0.409
			c-1.069-1.561-2.1-3.15-3.079-4.771c-0.04-0.07-0.08-0.14-0.12-0.21c-0.94-1.56-1.84-3.14-2.69-4.75
			c0.24-1.51,0.68-2.95,1.271-4.29c1.619-3.72,4.449-6.72,7.93-8.45c0.15,0.011,0.26,0.03,0.26,0.03s8.97,2.6,11.94,4.14
			c0.04,0.021,0.069,0.04,0.109,0.07c0.011,0,0.03,0.01,0.04,0.01c0.051,0.03,0.09,0.061,0.13,0.08c0.181,0.101,0.32,0.2,0.431,0.29
			c0.229,0.2,0.47,0.47,0.7,0.8c0.069,0.091,0.13,0.19,0.199,0.29c0.011,0.011,0.021,0.021,0.021,0.04
			c0.01,0.021,0.02,0.03,0.03,0.051c0.67,1.039,1.319,2.55,1.97,4.229c0.02,0.04,0.04,0.07,0.05,0.11c0,0.01,0,0.01,0.01,0.02
			c0,0.021,0.011,0.04,0.021,0.061c0,0.01,0.01,0.029,0.01,0.04c0.71,1.84,1.42,3.88,2.11,5.729c1.659,4.45,3.39,7.08,3.39,7.08
			C59.84,188.74,59.94,188.71,60.03,188.69z"/>
	</g>
	<g>
		
			<ellipse transform="matrix(0.8733 -0.4872 0.4872 0.8733 -84.2282 43.7926)" fill="#F5F5F5" cx="42.084" cy="183.838" rx="7.501" ry="10.413"/>
	</g>
	<g>
		
			<ellipse transform="matrix(0.8733 -0.4873 0.4873 0.8733 -88.7378 91.598)" fill="#F5F5F5" cx="131.701" cy="216.371" rx="7.502" ry="10.413"/>
	</g>
	<g>
		<path fill="#B1C5CD" d="M44.987,186.467l2.675,2.64c-0.313,0.697-0.796,1.288-1.422,1.686c-2.47,1.555-6.397-0.229-8.772-4.001
			c-2.385-3.758-2.324-8.071,0.145-9.64c2.458-1.555,6.386,0.241,8.772,4.001c0.76,1.193,1.265,2.447,1.53,3.64L44.987,186.467z"/>
	</g>
	<g>
		<path fill="#B1C5CD" d="M133.851,218.88l2.796,3.289c-0.229,0.301-0.519,0.554-0.844,0.759c-2.457,1.555-6.386-0.229-8.771-4
			c-2.386-3.772-2.313-8.086,0.145-9.64s6.386,0.229,8.772,4c1.156,1.819,1.734,3.76,1.747,5.459L133.851,218.88z"/>
	</g>
	<g>
		<polygon fill="#2F2F2F" points="184.855,167.139 184.651,167.211 181.386,168.416 178.542,169.464 161.661,175.671 
			148.913,153.535 153.371,151.873 156.203,150.812 159.444,149.608 160.3,149.294 173.011,144.547 184.277,166.031 		"/>
	</g>
	<g>
		<polygon fill="#2F2F2F" points="211.112,156.368 208.304,157.5 207.472,157.836 204.315,159.103 201.557,160.212 187.543,165.861 
			175.351,143.944 177.192,143.197 179.951,142.101 183.108,140.836 183.952,140.485 198.989,134.461 		"/>
	</g>
	<g>
		<path fill="#2F2F2F" d="M151.731,173.261c0,0-1.566-0.543-4.023-1.41c-1.266-0.457-2.771-0.988-4.423-1.566
			c-9.325-3.326-23.231-8.338-24.749-9.289c-2.312-1.446-2.193-3.531-2.193-3.531v-7.917c-0.049-1.205,0.567-1.638,1.218-1.759
			c0.686-0.145,1.41,0.072,1.41,0.072l2.867,1.107l22.918,8.893c0,0,5.965,11.172,6.868,13.087
			C152.517,172.874,151.731,173.261,151.731,173.261z"/>
	</g>
	<g>
		<path fill="#2F2F2F" d="M90.071,138.975l-0.05,8.434c0,0-0.2,0.854,1.255,1.759c1.457,0.902,13.907,6.073,13.907,6.073
			s2.61,0.552,2.61-1.154c0-1.707,0-7.883,0-7.883s-0.101-2.109-2.461-2.962c-2.357-0.853-13.003-5.07-13.003-5.07
			S90.375,137.518,90.071,138.975z"/>
	</g>
	<g>
		<path fill="#2F2F2F" d="M65.434,130.126v8.735c0,0-0.038,1.676,1.524,2.748c1.562,1.073,13.475,5.097,13.475,5.097
			s1.405,0.001,1.405-0.854s0-9.087,0-9.087s0.2-1.758-0.854-2.31c-1.055-0.554-13.305-5.223-13.305-5.223
			S65.446,128.456,65.434,130.126z"/>
	</g>
	<g>
		<path fill="#2F2F2F" d="M42.05,121.653c0,0,0.15-1.205,1.657-0.703c1.506,0.501,13.404,5.773,13.404,5.773
			s1.356,0.452,1.356,2.912s0,6.376,0,6.376s-0.102,1.606-1.708,1.606c-1.605,0-14.057-5.321-14.057-5.321s-0.503,0.15-0.503-1.557
			S42.05,121.653,42.05,121.653z"/>
	</g>
	<g>
		<path fill="#08847E" d="M200.966,129.015l-54.921,21.027c0,0-1.88,0.493-3.651-0.41c-1.603-0.818-95.9-35.992-113.89-42.704
			c0.12-0.301,1.133-2.614,4.471-4.012l100.346,36.365c0,0,2.193,0.747,4.146-0.229c1.578-0.796,40.738-14.422,55.463-19.543
			c1.024,0.687,2.229,1.698,3.374,3.144l4.628,6.327C200.931,128.979,200.941,128.991,200.966,129.015z"/>
	</g>
	<g>
		<polygon fill="#08847E" points="61.104,143.693 60.903,151.727 20.081,135.534 20.081,128.991 		"/>
	</g>
	<g>
		<polygon fill="#08847E" points="61.907,143.995 61.605,151.877 85.354,160.361 85.504,152.63 		"/>
	</g>
	<g>
		<polygon fill="#08847E" points="85.906,152.731 85.931,160.26 111.032,169.963 110.994,161.868 		"/>
	</g>
	<g>
		<path fill="#08847E" d="M216.69,166.235c0,0.074,0,0.193-0.012,0.35c-4.436,2.024-10.254,6.158-12.845,8.482
			c-10.989,13.23-13.255,30.943-13.519,33.438c-0.025,0.205,0.035,0.9,0.035,0.9s-1.449,0.609-1.449,0.585
			c-0.843-6.736-8.166-18.667-12.275-21.668c-6.023-3.41-17.676-1.302-17.676-1.302l-47.24-17.132l0.113-7.87
			c0,0,44.621,16.567,46.199,17.099c2.567,0.529,4.603-0.832,4.603-0.832l26.352-9.844l26.896-10.375
			c0.034,0.071,0.059,0.109,0.059,0.109S217.45,161.115,216.69,166.235z"/>
	</g>
	<g>
		<path fill="#F5F5F5" d="M177.307,194.959c2.556,3.013,1.547,8.07-2.262,11.297c-3.804,3.225-8.959,3.396-11.515,0.382
			c-2.553-3.018-1.54-8.071,2.262-11.298C169.598,192.113,174.751,191.942,177.307,194.959z"/>
	</g>
	<g>
		<polygon fill="#FFFFFF" points="148.22,218.009 140.638,202.252 111.333,190.29 111.787,189.174 141.523,201.311 149.305,217.485 
					"/>
	</g>
	<g>
		
			<ellipse transform="matrix(0.7627 -0.6467 0.6467 0.7627 -84.5992 151.7932)" fill="#F5F5F5" cx="164.577" cy="191.195" rx="4.372" ry="3.785"/>
	</g>
	<g>
		
			<ellipse transform="matrix(0.7627 -0.6467 0.6467 0.7627 -63.0894 178.4923)" fill="#F5F5F5" cx="211.719" cy="175.229" rx="4.372" ry="3.786"/>
	</g>
	<g>
		
			<ellipse transform="matrix(0.7627 -0.6468 0.6468 0.7627 -74.9607 165.7367)" fill="#B1C5CD" cx="188.374" cy="185.02" rx="4.371" ry="3.784"/>
	</g>
	<g>
		<path fill="#F5F5F5" d="M213.91,183.87c-0.43,0.71-0.87,1.41-1.32,2.11c-1.229,1.899-2.52,3.76-3.85,5.569
			c-0.62,0.83-1.25,1.66-1.9,2.47c-0.71,0.921-1.45,1.82-2.2,2.711c-2.04,0.05-3.909-0.671-5.159-2.141
			c-1.341-1.58-1.7-3.72-1.19-5.87c0.46-1.939,1.64-3.899,3.45-5.43c3.8-3.23,8.96-3.4,11.51-0.38
			C213.51,183.21,213.73,183.53,213.91,183.87z"/>
	</g>
	<g>
		<g>
			<path fill="#EAEAEA" d="M200.52,201.13v-1.899c0,0-0.449-1.921-2.06-1.62c-1.6,0.3-1.88,0.88-1.88,2.04v2.529l-5.6,2.011
				l-0.021,0.01l-3.28,1.18l-7.689,2.78V206.6c0,0-0.28-1.13-1.561-0.899c-1.27,0.229-2.069,0.53-2.069,2c0,0.899,0,1.42,0,1.42
				l-13.24,5.06c0,0-3.57,1.2-3.57,3.82c0,1.46,0,1.81,0,1.81s0,0.971-1,0.811c-0.01,0-0.03-0.01-0.05-0.01
				c-0.83-0.261-6.18-2.561-9.59-3.96c-0.01,0-0.01-0.011-0.021-0.011c-0.63-0.26-1.189-0.479-1.649-0.659
				c-0.04-0.021-0.061-0.03-0.101-0.04c0,0-0.109,0.01-0.29,0.02h-0.01c-0.06,0.021-0.12,0.021-0.2,0.03
				c-0.88,0.09-2.649,0.39-2.989,1.2c-0.2,0.59-1.471,3,4.239,4.06h0.011c0.01,0,0.01,0,0.02,0c0.07,0.01,0.14,0.03,0.2,0.04
				c1.59,0.6,9.939,3.49,9.939,3.49s1.4,0.569,2.37,0.09c0.42-0.21,10.66-4.05,22.33-8.4c3.53-2.399,6.92-5,10.13-7.8
				c0.221-0.18,0.44-0.37,0.65-0.56l-3.19,1.239h-0.01l-1.45,0.561l-8.6,3.37v-1l-0.05-2.62l7.92-2.88l2.52-0.91h0.011l5.819-2.12
				c0.26,0.16,0.36,0.69,0.38,1.27c1.36-1.3,2.681-2.64,3.96-4.01C200.64,201.09,200.52,201.13,200.52,201.13z M163.09,219.93
				l-1.07,0.431c0,0-0.3,0.13-0.489,0.13c-0.12-0.01-0.21-0.07-0.17-0.24c0,0-0.45-2.96,2.109-4.06
				c2.521-1.11,13.16-4.931,13.16-4.931s0.101,2.75-0.04,3.24l-13.41,5.39L163.09,219.93z"/>
		</g>
	</g>
	<g>
		<path fill="#FFFFFF" d="M201.726,132.088c-4.988,2.519-31.123,12.254-31.123,12.254l-23.702,9.446c0,0-2.662,0.7-4.362-0.301
			c-1.662-0.723-95.912-34.678-115.855-41.859l1.809-4.664c0,0,0-0.012,0.013-0.037c0,0,0-0.012,0.012-0.024l114.372,42.619
			c0,0,1.712,1.096,4.169,0.096c2.229-0.915,45.752-17.651,53.802-20.749l0.072,0.109c0,0,0.011,0.012,0.035,0.035
			C201.207,129.269,202.652,130.884,201.726,132.088z"/>
	</g>
	<g>
		<polygon fill="#FFFFFF" points="61.856,122.557 61.856,189.828 60.651,189.431 60.651,122.557 		"/>
	</g>
	<g>
		<polygon fill="#FFFFFF" points="86.256,131.292 86.256,197.938 85.051,197.54 85.051,131.292 		"/>
	</g>
	<g>
		<polygon fill="#FFFFFF" points="112.018,140.33 112.018,206.492 110.812,206.095 110.812,140.33 		"/>
	</g>
	<g>
		<path fill="#FFFFFF" d="M76.401,168.146c-0.167,0.644-0.825,1.029-1.469,0.863L71.045,168c-0.645-0.167-1.031-0.823-0.863-1.468
			l0.024-0.097c0.168-0.645,0.824-1.031,1.47-0.863l3.887,1.008c0.644,0.167,1.03,0.823,0.864,1.468L76.401,168.146z"/>
	</g>
	<g>
		<path fill="#FFFFFF" d="M121.734,180.953c-0.168,0.644-0.827,1.028-1.469,0.861l-3.888-1.015c-0.645-0.169-1.029-0.827-0.86-1.47
			l0.024-0.099c0.168-0.645,0.826-1.029,1.471-0.861l3.885,1.014c0.645,0.168,1.03,0.826,0.863,1.47L121.734,180.953z"/>
	</g>
	<path fill="#B1C5CD" d="M173.795,205.336c-2.422,1.651-5.398,1.675-7.267,0.204c1.303,0.193,2.771-0.12,4.062-1
		c2.397-1.639,3.229-4.59,1.867-6.59c-0.892-1.29-2.481-1.881-4.133-1.688c2.795-1.625,6.17-1.18,7.724,1.109
		C177.698,199.792,176.687,203.347,173.795,205.336z"/>
	<path fill="#B1C5CD" d="M166.618,193.435c-0.881,0.795-1.896,0.741-2.486-0.056c0.438,0.128,0.95,0.001,1.42-0.424
		c0.875-0.788,1.255-2.281,0.858-3.339c-0.259-0.684-0.783-1.024-1.353-0.96c1.009-0.772,2.144-0.47,2.599,0.743
		C168.138,190.68,167.674,192.479,166.618,193.435z"/>
	<path fill="#B1C5CD" d="M213.761,177.318c-0.88,0.795-1.896,0.74-2.485-0.056c0.437,0.128,0.95,0.001,1.42-0.424
		c0.874-0.787,1.255-2.282,0.858-3.339c-0.259-0.683-0.784-1.024-1.354-0.96c1.009-0.772,2.145-0.469,2.599,0.743
		C215.281,174.564,214.817,176.362,213.761,177.318z"/>
	<path fill="#FFFFFF" d="M190.491,187.335c-0.881,0.795-1.896,0.739-2.486-0.057c0.438,0.128,0.95,0.001,1.42-0.424
		c0.874-0.787,1.255-2.281,0.858-3.339c-0.259-0.683-0.784-1.024-1.353-0.96c1.009-0.772,2.144-0.469,2.599,0.743
		C192.011,184.58,191.546,186.378,190.491,187.335z"/>
	<path fill="#B1C5CD" d="M212.59,185.98c-1.229,1.899-2.52,3.76-3.85,5.569c-0.62,0.83-1.25,1.66-1.9,2.47
		c-1.6,0.261-3.17-0.079-4.31-0.979c1.3,0.19,2.77-0.12,4.06-1c0.36-0.24,0.68-0.521,0.96-0.81c1.641-1.681,2.07-4.08,0.91-5.78
		c-0.9-1.29-2.49-1.88-4.14-1.69c2.8-1.62,6.17-1.18,7.72,1.11C212.28,185.22,212.46,185.59,212.59,185.98z"/>
	<path fill="#424242" d="M139.876,207.128c0,0,3.766,3.615,3.087,8.962C142.963,216.09,142.888,211.195,139.876,207.128z"/>
	<path fill="#424242" d="M142.963,221.588c0,0-0.149,6.4-9.262,7.154C133.701,228.742,141.684,227.386,142.963,221.588z"/>
	<path fill="#424242" d="M142.398,223.658c0,0,4.97-0.564,5.647-1.77c0,0-0.037,2.146-6.288,2.899
		C141.871,224.412,142.398,223.658,142.398,223.658z"/>
	<path fill="#424242" d="M128.203,203.814c0,0-7.079,0.452-7.229,7.079C120.974,210.894,121.952,205.396,128.203,203.814z"/>
	<path fill="#424242" d="M48.2,172.161c0,0,7.48,3.94,6.352,18.55C54.552,190.711,54.803,178.536,48.2,172.161z"/>
	<path fill="#424242" d="M53.66,192.03c-3.9,5.729-9.13,5.3-12.66,4.06c-0.01,0-0.01-0.01-0.01-0.01c-0.13-0.15-0.25-0.3-0.37-0.44
		l-0.01-0.01c-0.021-0.02-0.03-0.04-0.061-0.06C48.37,197.99,52.82,193.07,53.66,192.03z"/>
	<polygon opacity="0.3" fill="#FFFFFF" points="181.386,168.416 178.542,169.464 153.371,151.873 156.203,150.812 	"/>
	<polygon opacity="0.3" fill="#FFFFFF" points="184.855,167.139 184.651,167.211 159.444,149.608 160.3,149.294 184.277,166.031 	
		"/>
	<polygon opacity="0.3" fill="#FFFFFF" points="204.315,159.103 201.557,160.212 177.192,143.197 179.951,142.101 	"/>
	<polygon opacity="0.3" fill="#FFFFFF" points="208.304,157.5 207.472,157.836 183.108,140.836 183.952,140.485 	"/>
	<polygon fill="#67F4F0" points="126.001,118.167 88.918,103.5 95.888,101.633 132.923,115.954 	"/>
	<polygon fill="#2F2F2F" points="128.611,117.293 91.162,102.88 97.139,101.13 134.173,115.454 	"/>
</g>
<g id="Layer_6">
	<path fill="#E8E8E8" d="M107.667,85.5l-4.896,18.288l15.771,8.379c0,0,6.4-17.849,14.908-17.397L107.667,85.5z"/>
	<path fill="#CCCCCC" d="M109.001,85.833l-7.321,14.634l14.464,10.4c0,0,8.349-16.477,16.731-15.016L109.001,85.833z"/>
	<path fill="#D4D6D6" d="M103.875,82.875L104.131,107l17.599,6.333c0,0,3.366-19.958,12.188-21.083L103.875,82.875z"/>
	<path fill="#F5F5F5" d="M133.25,92.25c-8.63,1.13-11.92,21.08-11.92,21.08l-10.47-3.85l-4.49-1.65l-2.25-0.83l-0.24-24.12
		l3.33,1.06l3.61,1.15c0,0,0,0,0,0.01L133.25,92.25z"/>
	<path fill="#0FC1C1" d="M115.546,101.953c0,3.437-1.748,6.797-4.021,6.797c-2.273,0-4.212-3.935-4.212-7.372
		s3.185-5.104,5.457-5.169C116.12,96.113,115.546,98.516,115.546,101.953z"/>
	<path fill="#0FC1C1" d="M130.021,92.667c0,0-1.896,0.959-4.188,5c-1.042,2-3.5,6.542-4.583,11.667l-0.542,2.125l-0.916-0.292
		c0,0,0.792-3.416,1.875-6.583s4.916-10.417,6.833-11.833L130.021,92.667z"/>
	<polygon fill="#0FC1C1" points="114.594,88.594 122.062,90.969 122.625,90.562 115.969,88.5 	"/>
	<path opacity="0.1" fill="#2F2F2F" d="M110.86,109.48l-4.49-1.65c-1.16-2.48-2.82-8.6-2.12-13.08c0.79-5.11,2.79-9.26,2.96-10.81
		l3.61,1.15c0,0,0,0,0,0.01c-0.141,0.56-2.63,10.68-1.99,14.4C109.46,103.08,110.91,108.12,110.86,109.48z"/>
	<polygon fill="#0FC1C1" points="116.015,89.012 115.255,88.786 106.732,86.247 106.876,85.768 116.157,88.532 	"/>
	<polygon fill="#0FC1C1" points="129.292,93.104 121.545,90.789 121.688,90.31 130.021,92.667 	"/>
	<path fill="#2F2F2F" d="M126.875,21.875v2.542l-4.334,3.958l-13.958,1.75l-2.417-1.917c0,0-2.167-3.375-2-3.5
		s2.584-5.25,2.584-5.25s8.042-1.167,8.5-1.125S126.875,21.875,126.875,21.875z"/>
	<path fill="#2F2F2F" d="M136.156,22.547c0,0-9.239-1.38-9.364,2.662c-0.541-1.833-1.125-4.417,0.625-4.125
		S135.187,21.552,136.156,22.547z"/>
	<path fill="#CECECD" d="M121.83,88.49l-8.13-2.52c-0.09-2.76-1.13-4.82-1.66-5.7c-0.05-0.02-0.12-0.04-0.2-0.06
		c-0.58,0.02-1.45,0.27-1.84,1.41c-0.62,1.79-1.54,8.01-2.46,9.56c0,0.03-0.01,0.06-0.01,0.08c-0.75,5.14-1.83,15.18,0.35,19.91
		c0,0,0.33,2.83-4.26,2.75c-4.44-0.08-5.82-8.05-5.91-14.69c-0.21-2.31,0.04-5.7,0.49-9.22c-0.03-0.42-0.03-0.85,0.09-1.34
		l0.16-0.74c-0.16,0.04-0.33,0.07-0.561,0.08c-1.42,0.75-3.399,1.29-5.51,0.24c-4-2-3.13-2.63-5.38-3.63s-4.75-2.5-5.75-7.62
		c-0.01-0.08-0.01-0.15-0.04-0.22c-0.96-1.03-1.49-2.31-1.24-3.55l0.28-1.34c-0.2-1.11-0.32-2.2-0.37-3.25
		c0.79-3.08,3.01-6.13,5.24-7.97c1.14-0.94,1.649-1.86,1.82-2.36c0.72-0.02,1.279,0.1,1.689-0.02c0,0,0.92-5.85-4.41-6.03
		l0.141-0.69c0.439-2.21,3.1-3.4,5.93-2.66c1.59,0.41,2.88,1.34,3.64,2.46c0.74-0.08,1.53-0.03,2.351,0.18
		c1.33,0.35,2.46,1.07,3.229,1.96c0.32,0.03,0.66,0.09,0.99,0.18c2.67,0.7,4.54,2.89,4.33,4.99c1.25-1.78,3.74-2.69,6.29-2.1
		c3.22,0.74,5.31,3.58,4.68,6.35c0,0-0.06,0.18-0.189,0.5c0.09-0.04,0.14-0.05,0.14-0.05s7,10.9,7.13,18.82
		C123.15,84.55,122.68,86.66,121.83,88.49z"/>
	<path fill="#2F2F2F" d="M91.668,40.667c0,0-2.23,4.637-5.621,3.833c0,0-3.045,3.417,2.121,5.167s17.667,2.75,23,5.167
		s10,0.833,10.25-0.333S118,45,118.834,40.833S111.001,39.75,108.251,40S91.668,40.667,91.668,40.667z"/>
	<path fill="#2F2F2F" d="M113.001,15.042c0,0-3.499-1.625-11.083,3.917S112.668,14.958,113.001,15.042z"/>
	<path fill="#2F2F2F" d="M92.688,33.375c0,0-3.25,9.125-6.562,11.125s8.562-1.438,9.375-4.562S92.688,38.438,92.688,33.375z"/>
	<path fill="#2F2F2F" d="M136.625,22.688c0,0-1.59-1.269-3.692-2.491c-0.136-0.081-0.279-0.16-0.422-0.239
		c-0.106-0.06-0.214-0.119-0.322-0.178c-0.061-0.032-0.119-0.064-0.181-0.096c-1.004-0.534-2.08-1.022-3.133-1.34
		c-0.051-0.016-0.098-0.021-0.148-0.035c-6.478-2.268-15.119-3.232-17.127-3.434c-4.442,0.852-19.996,4.583-20.433,29.458
		c0,0-0.269,0.098-0.712,0.192c7.669,1.636,21.86,4.668,28.929,6.206c-3.368-19.188,9.704-27.613,11.288-28.555
		c1.492-0.032,3.192,0.03,4.864,0.303c0.042,0.062,0.093,0.123,0.131,0.187c-0.042-0.07-0.085-0.125-0.127-0.186
		C135.904,22.54,136.267,22.606,136.625,22.688z"/>
	<path fill="#2F2F2F" d="M119.881,63.022c-0.313,1.19-1.895,1.806-3.531,1.376l-31.627-8.306c-1.638-0.43-2.712-1.744-2.399-2.934
		l1.886-7.181c0.312-1.19,1.894-1.807,3.531-1.376l31.627,8.306c1.639,0.43,2.711,1.744,2.399,2.934L119.881,63.022z"/>
	<path fill="#CECECD" d="M86.375,56.516c0,0,1.016,1.469,0.297,2.422c1.062,0.203,2.594-0.422,2.594-0.422l-0.312-1.312
		L86.375,56.516z"/>
	<path fill="#B2B3B3" d="M99.969,107.156c0,0,0.844-0.375,1.969-0.219s2.031,0.062,2.469-0.125s1.031,2,0.875,3.156
		s-0.219,2.188-1.625,2.094S100.25,111.25,99.969,107.156z"/>
	<path opacity="0.3" fill="#B1C5CD" d="M129.375,19.875c0,0-0.55,0.018-1.483,0.217c-0.467,0.096-1.028,0.235-1.658,0.44
		c-0.63,0.206-1.324,0.48-2.059,0.829c-0.724,0.37-1.492,0.804-2.246,1.35c-0.385,0.263-0.764,0.555-1.126,0.885
		c-0.383,0.306-0.729,0.667-1.081,1.034c-0.706,0.732-1.347,1.573-1.927,2.472c-0.569,0.896-1.051,1.893-1.577,2.846
		c-0.479,0.98-0.84,2.011-1.259,2.999c-0.353,1.013-0.623,2.037-0.927,3.013c-0.241,0.993-0.436,1.962-0.641,2.875
		c-0.129,0.927-0.252,1.803-0.364,2.612c-0.056,0.813-0.105,1.558-0.15,2.218c0.011,0.659,0.02,1.233,0.027,1.706
		c0.027,0.468,0.092,0.826,0.115,1.073c0.029,0.246,0.044,0.377,0.044,0.377l0.007,0.051c0.021,0.175-0.104,0.333-0.279,0.354
		c-0.174,0.021-0.333-0.104-0.354-0.278c0-0.005-0.001-0.012-0.001-0.017c0,0-0.01-0.141-0.027-0.405
		c-0.011-0.263-0.057-0.652-0.058-1.139c0.02-0.484,0.044-1.071,0.071-1.745c0.072-0.667,0.153-1.418,0.243-2.239
		c0.144-0.811,0.3-1.688,0.465-2.618c0.227-0.916,0.442-1.886,0.706-2.878c0.325-0.975,0.618-1.997,0.993-3.007
		c0.423-0.992,0.789-2.032,1.27-3.014c0.523-0.962,0.967-1.956,1.535-2.884c0.572-0.917,1.213-1.776,1.919-2.528
		c0.354-0.376,0.7-0.748,1.086-1.063c0.364-0.34,0.745-0.642,1.134-0.915c0.755-0.576,1.555-0.993,2.295-1.356
		c0.753-0.342,1.463-0.609,2.111-0.784c0.646-0.177,1.217-0.307,1.693-0.365C128.825,19.855,129.375,19.875,129.375,19.875z"/>
	<path opacity="0.3" fill="#B1C5CD" d="M123.496,18.713c0,0-0.548-0.008-1.497,0.153c-0.938,0.173-2.298,0.466-3.711,1.263
		c-0.714,0.378-1.413,0.915-2.04,1.581c-0.645,0.654-1.104,1.511-1.653,2.414c-0.515,0.903-1.008,1.831-1.488,2.815
		c-0.489,0.974-0.938,1.99-1.397,3.003c-0.462,1.012-0.902,2.04-1.422,3.014c-0.576,0.963-1.143,1.844-1.576,2.795
		c-0.897,1.872-1.564,3.705-1.968,5.312c-0.214,0.801-0.35,1.548-0.437,2.21c-0.08,0.664-0.091,1.243-0.069,1.714
		c0.044,0.465,0.083,0.833,0.168,1.061c0.066,0.234,0.102,0.358,0.102,0.358l0.014,0.046c0.041,0.145-0.043,0.295-0.188,0.337
		c-0.146,0.041-0.296-0.043-0.337-0.188c-0.001-0.003-0.002-0.008-0.003-0.011c0,0-0.034-0.145-0.1-0.416
		c-0.082-0.269-0.106-0.67-0.13-1.172c0.001-0.502,0.042-1.106,0.156-1.785c0.113-0.677,0.267-1.436,0.504-2.242
		c0.463-1.615,1.141-3.454,2.053-5.34c0.229-0.471,0.478-0.942,0.75-1.414c0.289-0.456,0.558-0.927,0.82-1.396
		c0.483-0.972,0.919-1.992,1.316-3.032c0.409-1.034,0.809-2.077,1.255-3.083c0.421-1.012,0.921-2,1.425-2.915
		c0.265-0.455,0.523-0.901,0.777-1.338c0.307-0.425,0.602-0.843,0.958-1.193c0.69-0.714,1.456-1.279,2.223-1.671
		c1.547-0.771,2.968-1.033,3.949-1.111c0.983-0.085,1.554-0.03,1.554-0.03l0.006,0c0.071,0.007,0.124,0.07,0.117,0.141
		C123.62,18.664,123.562,18.714,123.496,18.713z"/>
	<path opacity="0.3" fill="#B1C5CD" d="M116.789,17.137c0,0-0.416,0.298-1.12,0.847c-0.346,0.284-0.765,0.63-1.245,1.026
		c-0.46,0.42-0.979,0.894-1.546,1.411c-0.534,0.55-1.113,1.146-1.726,1.776c-0.556,0.679-1.188,1.361-1.759,2.129
		c-0.274,0.393-0.553,0.793-0.834,1.197c-0.291,0.399-0.57,0.812-0.785,1.269c-0.461,0.894-0.952,1.789-1.348,2.736
		c-1.718,3.725-3.984,7.173-5.083,10.03c-0.283,0.708-0.483,1.378-0.623,1.978c-0.133,0.6-0.222,1.131-0.232,1.57
		c-0.042,0.438-0.015,0.782,0,1.017c0.013,0.234,0.02,0.359,0.02,0.359l0.001,0.021c0.005,0.097-0.069,0.179-0.166,0.185
		c-0.097,0.005-0.179-0.069-0.185-0.166c0-0.001,0-0.002,0-0.003c0,0-0.005-0.131-0.013-0.376c-0.011-0.245-0.03-0.605,0.022-1.059
		c0.021-0.456,0.125-1.002,0.274-1.614c0.155-0.612,0.377-1.289,0.676-2.001c1.148-2.879,3.453-6.292,5.208-9.985
		c0.405-0.94,0.91-1.835,1.383-2.727c0.216-0.459,0.496-0.873,0.787-1.274c0.282-0.406,0.562-0.807,0.836-1.202
		c0.572-0.77,1.205-1.455,1.762-2.136c0.613-0.632,1.193-1.229,1.729-1.781c0.565-0.52,1.084-0.997,1.544-1.419
		c0.476-0.404,0.891-0.757,1.232-1.047c0.701-0.562,1.112-0.866,1.112-0.867c0.029-0.022,0.071-0.016,0.093,0.014
		C116.826,17.073,116.819,17.115,116.789,17.137L116.789,17.137z"/>
	<path opacity="0.3" fill="#B1C5CD" d="M111.935,17.271c0,0-1.639,1.222-3.913,3.27c-0.583,0.496-1.16,1.092-1.799,1.691
		c-0.646,0.592-1.244,1.299-1.908,1.985c-0.651,0.699-1.231,1.499-1.871,2.268c-0.268,0.421-0.537,0.846-0.808,1.272l-0.405,0.641
		c-0.123,0.211-0.223,0.456-0.335,0.682c-0.438,0.922-0.874,1.844-1.306,2.752c-0.431,0.908-0.756,1.839-1.124,2.719
		c-0.743,1.762-1.258,3.461-1.876,4.892c-0.256,0.739-0.654,1.328-0.961,1.871c-0.318,0.536-0.584,1.003-0.792,1.392
		c-0.207,0.391-0.333,0.701-0.404,0.911c-0.037,0.195-0.058,0.299-0.058,0.299l-0.012,0.06c-0.021,0.111-0.129,0.184-0.24,0.162
		c-0.104-0.021-0.175-0.118-0.164-0.222c0,0,0.017-0.154,0.08-0.42c0.084-0.243,0.228-0.581,0.444-0.978
		c0.217-0.397,0.493-0.869,0.816-1.399c0.31-0.535,0.712-1.115,0.965-1.828c0.612-1.375,1.157-3.098,1.922-4.855
		c0.38-0.881,0.72-1.817,1.161-2.72c0.44-0.903,0.888-1.82,1.335-2.738c0.117-0.229,0.213-0.459,0.347-0.688l0.418-0.646
		c0.279-0.429,0.558-0.855,0.833-1.279c0.653-0.768,1.247-1.567,1.908-2.261c0.675-0.682,1.282-1.384,1.938-1.971
		c0.647-0.594,1.231-1.185,1.821-1.675c2.301-2.025,3.954-3.229,3.954-3.229c0.013-0.009,0.029-0.007,0.038,0.005
		S111.946,17.263,111.935,17.271z"/>
	<path opacity="0.3" fill="#B1C5CD" d="M110.586,16.62c0,0-2.007,0.805-4.756,2.529c-1.369,0.863-2.917,1.959-4.421,3.313
		c-1.502,1.351-2.961,2.969-4.073,4.815c-0.559,0.917-1.034,1.897-1.48,2.864c-0.448,0.965-0.859,1.932-1.223,2.88
		c-0.74,1.892-1.311,3.703-1.809,5.254c-0.495,1.55-0.951,2.84-1.44,3.669c-0.23,0.419-0.473,0.718-0.649,0.903
		c-0.184,0.182-0.282,0.279-0.282,0.279c-0.021,0.021-0.056,0.021-0.077,0c-0.021-0.021-0.021-0.056,0-0.077l0.007-0.007
		c0,0,0.093-0.095,0.269-0.273c0.171-0.181,0.403-0.472,0.626-0.887c0.472-0.817,0.914-2.103,1.394-3.657
		c0.483-1.553,1.037-3.375,1.763-5.281c0.356-0.956,0.759-1.929,1.201-2.907c0.44-0.977,0.903-1.957,1.466-2.901
		c1.112-1.887,2.576-3.542,4.084-4.923c1.51-1.384,3.062-2.507,4.438-3.392c2.758-1.767,4.793-2.606,4.794-2.606l0.005-0.002
		c0.112-0.046,0.241,0.007,0.287,0.12s-0.007,0.241-0.119,0.288L110.586,16.62z"/>
	<path fill="#2F2F2F" d="M110.042,14.958c0,0,10.625-1.958,19.708-0.125s16.084,8,17.417,9.667c0,0-11.583-2-14.75-2.333
		s-0.5-0.583-2.167-1.583S124,18.417,123,18.167S110.084,16.083,110.042,14.958z"/>
</g>
<g id="Guide" display="none">
</g>
</svg>
